<svg xmlns="http://www.w3.org/2000/svg" xmlns:xlink="http://www.w3.org/1999/xlink" width="317.943" height="672.083" viewBox="0 0 317.943 672.083">
  <defs>
    <linearGradient id="linear-gradient" x1="-56.252" y1="0.103" x2="-54.997" y2="0.95" gradientUnits="objectBoundingBox">
      <stop offset="0" stop-color="#3a9bd5"/>
      <stop offset="1" stop-color="#2573ba"/>
    </linearGradient>
    <linearGradient id="linear-gradient-2" x1="-27.457" y1="0.221" x2="-26.751" y2="0.746" gradientUnits="objectBoundingBox">
      <stop offset="0" stop-color="#7bdaff"/>
      <stop offset="1" stop-color="#59bdef"/>
    </linearGradient>
    <linearGradient id="linear-gradient-3" x1="-54.291" y1="0.314" x2="-52.952" y2="0.71" gradientUnits="objectBoundingBox">
      <stop offset="0" stop-color="#2573ba"/>
      <stop offset="1" stop-color="#0063ad"/>
    </linearGradient>
    <linearGradient id="linear-gradient-7" x1="-56.189" y1="0.022" x2="-55.068" y2="1.042" xlink:href="#linear-gradient"/>
    <linearGradient id="linear-gradient-9" x1="-54.24" y1="0.271" x2="-53.011" y2="0.759" xlink:href="#linear-gradient-3"/>
  </defs>
  <g id="stands" transform="translate(-275.258 -2198.004)">
    <g id="Group_236" data-name="Group 236" transform="translate(275.258 2198.004)">
      <g id="Group_228" data-name="Group 228" transform="translate(0 229.139)">
        <g id="Group_227" data-name="Group 227">
          <g id="Group_222" data-name="Group 222" transform="translate(0 75.531)">
            <g id="Group_221" data-name="Group 221" transform="translate(0 113.353)">
              <path id="Path_442" data-name="Path 442" d="M818.962,459.09,977.93,367.309v-70.5L818.962,388.594Z" transform="translate(-659.996 -205.032)" fill="url(#linear-gradient)"/>
              <path id="Path_443" data-name="Path 443" d="M925.558,450.135l158.968-91.781L925.568,266.576,766.6,358.357Z" transform="translate(-766.583 -266.576)" fill="url(#linear-gradient-2)"/>
              <path id="Path_444" data-name="Path 444" d="M900.116,413.542l121.029-69.875L900.12,273.794,779.091,343.669Z" transform="translate(-741.148 -251.886)" fill="#fff"/>
              <path id="Path_445" data-name="Path 445" d="M766.591,367.31l158.968,91.781V388.6L766.591,296.814Z" transform="translate(-766.591 -205.031)" fill="url(#linear-gradient-3)"/>
            </g>
            <path id="Path_446" data-name="Path 446" d="M818.962,421.747,977.93,329.966v-70.5L818.962,351.251Z" transform="translate(-659.996 -167.689)" fill="url(#linear-gradient)"/>
            <path id="Path_447" data-name="Path 447" d="M925.558,412.792l158.968-91.781L925.568,229.232,766.6,321.013Z" transform="translate(-766.583 -229.232)" fill="url(#linear-gradient-2)"/>
            <path id="Path_448" data-name="Path 448" d="M925.558,348.91l155.912-90.016,3.056,1.766L925.558,352.432,766.6,260.654l3.058-1.766Z" transform="translate(-766.583 -168.872)" fill="#a9ebff"/>
            <path id="Path_449" data-name="Path 449" d="M925.558,386.247l155.912-90.016,3.056,1.766L925.558,389.774,766.6,298l3.058-1.766Z" transform="translate(-766.583 -92.865)" fill="#a9ebff"/>
            <path id="Path_450" data-name="Path 450" d="M893.666,240.8l111.39,64.319-111.4,64.317L782.262,305.119Z" transform="translate(-734.694 -205.689)" fill="#fff"/>
            <path id="Path_451" data-name="Path 451" d="M902.548,251.057l-111.4,64.319L777.9,307.727,902.548,235.76,1027.2,307.726l-13.247,7.648Z" transform="translate(-743.578 -215.946)" fill="#2573ba"/>
            <path id="Path_452" data-name="Path 452" d="M766.591,329.966l158.973,91.781v-70.5L766.6,259.47Z" transform="translate(-766.591 -167.689)" fill="url(#linear-gradient-3)"/>
          </g>
          <g id="Group_223" data-name="Group 223" transform="translate(37.299 217.61)">
            <path id="Path_453" data-name="Path 453" d="M800.686,295.116a20.092,20.092,0,0,0,9.087,15.742c5.017,2.9,9.087.549,9.087-5.244a20.091,20.091,0,0,0-9.088-15.742C804.757,286.973,800.686,289.323,800.686,295.116Z" transform="translate(-734.495 -250.414)" fill="#fff"/>
            <path id="Path_454" data-name="Path 454" d="M789.783,288.821a20.091,20.091,0,0,0,9.087,15.742c5.017,2.9,9.087.549,9.087-5.244a20.091,20.091,0,0,0-9.088-15.742C793.854,280.678,789.783,283.028,789.783,288.821Z" transform="translate(-756.686 -263.226)" fill="#fff"/>
            <path id="Path_455" data-name="Path 455" d="M778.88,282.526a20.083,20.083,0,0,0,9.087,15.742c5.017,2.9,9.084.549,9.084-5.244a20.093,20.093,0,0,0-9.084-15.742C782.947,274.383,778.88,276.733,778.88,282.526Z" transform="translate(-778.878 -276.04)" fill="#fff"/>
            <path id="Path_456" data-name="Path 456" d="M805.293,288.653a8.749,8.749,0,0,0-.684,3.573,20.089,20.089,0,0,0,9.084,15.742,7.7,7.7,0,0,0,4.483,1.172c-1.357,3.042-4.6,3.867-8.4,1.672a20.091,20.091,0,0,1-9.087-15.742C800.688,291.167,802.555,288.877,805.293,288.653Z" transform="translate(-734.497 -250.367)" fill="#a9ebff"/>
            <path id="Path_457" data-name="Path 457" d="M794.388,282.358a8.741,8.741,0,0,0-.685,3.573,20.091,20.091,0,0,0,9.088,15.742,7.7,7.7,0,0,0,4.483,1.172c-1.357,3.042-4.6,3.867-8.4,1.672a20.092,20.092,0,0,1-9.088-15.742C789.784,284.872,791.651,282.582,794.388,282.358Z" transform="translate(-756.687 -263.179)" fill="#a9ebff"/>
            <path id="Path_458" data-name="Path 458" d="M783.485,276.063a8.749,8.749,0,0,0-.684,3.573,20.077,20.077,0,0,0,9.087,15.742,7.7,7.7,0,0,0,4.48,1.172c-1.354,3.041-4.6,3.867-8.4,1.672a20.082,20.082,0,0,1-9.087-15.742C778.881,278.577,780.748,276.287,783.485,276.063Z" transform="translate(-778.879 -275.992)" fill="#a9ebff"/>
          </g>
          <g id="Group_224" data-name="Group 224" transform="translate(37.299 330.962)">
            <path id="Path_459" data-name="Path 459" d="M800.686,332.459a20.091,20.091,0,0,0,9.087,15.742c5.017,2.9,9.087.546,9.087-5.248a20.091,20.091,0,0,0-9.082-15.737C804.757,324.318,800.686,326.664,800.686,332.459Z" transform="translate(-734.495 -287.757)" fill="#fff"/>
            <path id="Path_460" data-name="Path 460" d="M789.783,326.165a20.091,20.091,0,0,0,9.087,15.742c5.017,2.9,9.087.546,9.087-5.248a20.091,20.091,0,0,0-9.088-15.742C793.854,318.024,789.783,320.369,789.783,326.165Z" transform="translate(-756.686 -300.57)" fill="#fff"/>
            <path id="Path_461" data-name="Path 461" d="M778.88,319.87a20.082,20.082,0,0,0,9.087,15.742c5.017,2.9,9.084.546,9.084-5.248a20.088,20.088,0,0,0-9.084-15.742C782.947,311.728,778.88,314.074,778.88,319.87Z" transform="translate(-778.878 -313.383)" fill="#fff"/>
            <path id="Path_462" data-name="Path 462" d="M805.293,326a8.755,8.755,0,0,0-.684,3.576,20.088,20.088,0,0,0,9.084,15.742,7.726,7.726,0,0,0,4.483,1.172c-1.357,3.042-4.6,3.867-8.4,1.672a20.091,20.091,0,0,1-9.087-15.742C800.688,328.51,802.555,326.221,805.293,326Z" transform="translate(-734.497 -287.708)" fill="#a9ebff"/>
            <path id="Path_463" data-name="Path 463" d="M794.388,319.7a8.751,8.751,0,0,0-.684,3.576,20.091,20.091,0,0,0,9.087,15.742,7.725,7.725,0,0,0,4.483,1.172c-1.357,3.041-4.6,3.867-8.4,1.672a20.092,20.092,0,0,1-9.088-15.742C789.784,322.219,791.651,319.929,794.388,319.7Z" transform="translate(-756.687 -300.526)" fill="#a9ebff"/>
            <path id="Path_464" data-name="Path 464" d="M783.485,313.406a8.753,8.753,0,0,0-.684,3.576,20.082,20.082,0,0,0,9.087,15.742,7.72,7.72,0,0,0,4.48,1.172c-1.354,3.042-4.6,3.867-8.4,1.672a20.082,20.082,0,0,1-9.087-15.742C778.881,315.923,780.748,313.634,783.485,313.406Z" transform="translate(-778.879 -313.337)" fill="#a9ebff"/>
          </g>
          <g id="Group_225" data-name="Group 225" transform="translate(196.34 218.241)">
            <path id="Path_465" data-name="Path 465" d="M849.447,295.325a20.083,20.083,0,0,1-9.087,15.742c-5.017,2.9-9.086.549-9.086-5.244a20.083,20.083,0,0,1,9.086-15.742C845.38,287.18,849.447,289.531,849.447,295.325Z" transform="translate(-831.274 -250.621)" fill="#fff"/>
            <path id="Path_466" data-name="Path 466" d="M860.352,289.029a20.078,20.078,0,0,1-9.087,15.742c-5.017,2.9-9.086.549-9.086-5.244a20.083,20.083,0,0,1,9.086-15.742C856.282,280.886,860.352,283.236,860.352,289.029Z" transform="translate(-809.08 -263.435)" fill="#fff"/>
            <path id="Path_467" data-name="Path 467" d="M871.252,282.735a20.083,20.083,0,0,1-9.086,15.742c-5.02,2.9-9.087.549-9.087-5.244a20.079,20.079,0,0,1,9.088-15.742C867.187,274.59,871.252,276.941,871.252,282.735Z" transform="translate(-786.89 -276.248)" fill="#fff"/>
            <path id="Path_468" data-name="Path 468" d="M844.384,288.861a8.747,8.747,0,0,1,.685,3.573,20.086,20.086,0,0,1-9.088,15.742,7.7,7.7,0,0,1-4.479,1.172c1.353,3.041,4.6,3.867,8.4,1.672a20.082,20.082,0,0,0,9.088-15.742C848.988,291.375,847.121,289.085,844.384,288.861Z" transform="translate(-830.815 -250.576)" fill="#a9ebff"/>
            <path id="Path_469" data-name="Path 469" d="M855.287,282.566a8.746,8.746,0,0,1,.685,3.573,20.079,20.079,0,0,1-9.088,15.742,7.7,7.7,0,0,1-4.479,1.172c1.357,3.042,4.6,3.867,8.4,1.672a20.082,20.082,0,0,0,9.088-15.742C859.891,285.08,858.024,282.8,855.287,282.566Z" transform="translate(-808.623 -263.388)" fill="#a9ebff"/>
            <path id="Path_470" data-name="Path 470" d="M866.19,276.271a8.747,8.747,0,0,1,.684,3.573,20.083,20.083,0,0,1-9.086,15.742,7.7,7.7,0,0,1-4.483,1.172c1.357,3.041,4.6,3.867,8.4,1.672a20.083,20.083,0,0,0,9.086-15.742C870.795,278.785,868.928,276.492,866.19,276.271Z" transform="translate(-786.431 -276.201)" fill="#a9ebff"/>
          </g>
          <g id="Group_226" data-name="Group 226" transform="translate(196.34 331.594)">
            <path id="Path_471" data-name="Path 471" d="M849.447,332.669a20.083,20.083,0,0,1-9.087,15.742c-5.017,2.9-9.086.549-9.086-5.248a20.087,20.087,0,0,1,9.086-15.742C845.38,324.526,849.447,326.875,849.447,332.669Z" transform="translate(-831.274 -287.966)" fill="#fff"/>
            <path id="Path_472" data-name="Path 472" d="M860.352,326.374a20.082,20.082,0,0,1-9.087,15.742c-5.017,2.9-9.086.549-9.086-5.248a20.088,20.088,0,0,1,9.086-15.742C856.282,318.231,860.352,320.58,860.352,326.374Z" transform="translate(-809.08 -300.778)" fill="#fff"/>
            <path id="Path_473" data-name="Path 473" d="M871.252,320.079a20.089,20.089,0,0,1-9.086,15.742c-5.02,2.9-9.087.549-9.087-5.248a20.083,20.083,0,0,1,9.087-15.742C867.187,311.936,871.252,314.29,871.252,320.079Z" transform="translate(-786.89 -313.592)" fill="#fff"/>
            <path id="Path_474" data-name="Path 474" d="M844.384,326.2a8.772,8.772,0,0,1,.684,3.576,20.091,20.091,0,0,1-9.087,15.742,7.7,7.7,0,0,1-4.479,1.172c1.353,3.041,4.6,3.867,8.4,1.672a20.082,20.082,0,0,0,9.088-15.742C848.988,328.724,847.121,326.434,844.384,326.2Z" transform="translate(-830.815 -287.924)" fill="#a9ebff"/>
            <path id="Path_475" data-name="Path 475" d="M855.287,319.91a8.745,8.745,0,0,1,.685,3.573,20.083,20.083,0,0,1-9.088,15.742A7.7,7.7,0,0,1,842.4,340.4c1.357,3.042,4.6,3.867,8.4,1.673a20.082,20.082,0,0,0,9.088-15.742C859.891,322.424,858.024,320.134,855.287,319.91Z" transform="translate(-808.623 -300.731)" fill="#a9ebff"/>
            <path id="Path_476" data-name="Path 476" d="M866.19,313.615a8.747,8.747,0,0,1,.684,3.573,20.088,20.088,0,0,1-9.086,15.742,7.7,7.7,0,0,1-4.483,1.172c1.357,3.042,4.6,3.867,8.4,1.672a20.088,20.088,0,0,0,9.086-15.742C870.795,316.129,868.928,313.839,866.19,313.615Z" transform="translate(-786.431 -313.543)" fill="#a9ebff"/>
          </g>
          <path id="Path_477" data-name="Path 477" d="M818.962,355.124l158.968-91.78v-28.76L818.962,326.366Z" transform="translate(-659.996 -142.807)" fill="url(#linear-gradient-7)"/>
          <path id="Path_478" data-name="Path 478" d="M925.562,387.907l158.958-91.78L925.562,204.349,766.594,296.13Z" transform="translate(-766.587 -204.349)" fill="url(#linear-gradient-2)"/>
          <path id="Path_479" data-name="Path 479" d="M925.558,324.021,1081.461,234l3.056,1.764-158.96,91.787L766.6,235.773l3.058-1.764Z" transform="translate(-766.583 -143.993)" fill="#a9ebff"/>
          <path id="Path_480" data-name="Path 480" d="M766.591,263.345l158.973,91.78V326.366L766.6,234.585Z" transform="translate(-766.591 -142.807)" fill="url(#linear-gradient-9)"/>
        </g>
      </g>
      <g id="Group_235" data-name="Group 235" transform="translate(0 0)">
        <g id="Group_230" data-name="Group 230" transform="translate(0 75.526)">
          <g id="Group_229" data-name="Group 229" transform="translate(0 113.353)">
            <path id="Path_481" data-name="Path 481" d="M818.962,383.6,977.93,291.819v-70.5L818.962,313.1Z" transform="translate(-659.996 -129.543)" fill="url(#linear-gradient)"/>
            <path id="Path_482" data-name="Path 482" d="M925.558,374.646l158.968-91.781L925.568,191.086,766.6,282.867Z" transform="translate(-766.583 -191.086)" fill="url(#linear-gradient-2)"/>
            <path id="Path_483" data-name="Path 483" d="M900.116,338.053l121.029-69.875L900.12,198.3,779.091,268.18Z" transform="translate(-741.148 -176.4)" fill="#fff"/>
            <path id="Path_484" data-name="Path 484" d="M766.591,291.819,925.559,383.6V313.1L766.591,221.323Z" transform="translate(-766.591 -129.543)" fill="url(#linear-gradient-3)"/>
          </g>
          <path id="Path_485" data-name="Path 485" d="M818.962,346.256,977.93,254.475v-70.5L818.962,275.76Z" transform="translate(-659.996 -92.199)" fill="url(#linear-gradient)"/>
          <path id="Path_486" data-name="Path 486" d="M925.562,337.3,1084.52,245.52,925.562,153.742,766.594,245.523Z" transform="translate(-766.587 -153.742)" fill="url(#linear-gradient-2)"/>
          <path id="Path_487" data-name="Path 487" d="M925.558,273.408l155.912-90.016,3.056,1.766L925.558,276.946,766.6,185.168l3.058-1.766Z" transform="translate(-766.583 -93.387)" fill="#a9ebff"/>
          <path id="Path_488" data-name="Path 488" d="M925.558,310.756,1081.47,220.74l3.056,1.766L925.558,314.287,766.6,222.509l3.058-1.766Z" transform="translate(-766.583 -17.375)" fill="#a9ebff"/>
          <path id="Path_489" data-name="Path 489" d="M893.666,165.309l111.39,64.321-111.4,64.317L782.262,229.63Z" transform="translate(-734.694 -130.2)" fill="#fff"/>
          <path id="Path_490" data-name="Path 490" d="M902.548,175.565l-111.4,64.321L777.9,232.237,902.548,160.27,1027.2,232.236l-13.247,7.648Z" transform="translate(-743.578 -140.456)" fill="#2573ba"/>
          <path id="Path_491" data-name="Path 491" d="M766.591,254.475l158.968,91.781v-70.5L766.591,183.979Z" transform="translate(-766.591 -92.199)" fill="url(#linear-gradient-3)"/>
        </g>
        <g id="Group_231" data-name="Group 231" transform="translate(37.299 217.603)">
          <path id="Path_492" data-name="Path 492" d="M800.686,219.625a20.086,20.086,0,0,0,9.087,15.742c5.017,2.9,9.088.549,9.088-5.245a20.086,20.086,0,0,0-9.087-15.742C804.757,211.482,800.686,213.832,800.686,219.625Z" transform="translate(-734.495 -174.923)" fill="#fff"/>
          <path id="Path_493" data-name="Path 493" d="M789.783,213.331a20.087,20.087,0,0,0,9.087,15.742c5.017,2.9,9.087.549,9.087-5.244a20.086,20.086,0,0,0-9.087-15.742C793.854,205.186,789.783,207.537,789.783,213.331Z" transform="translate(-756.686 -187.737)" fill="#fff"/>
          <path id="Path_494" data-name="Path 494" d="M778.88,207.035a20.078,20.078,0,0,0,9.087,15.742c5.017,2.9,9.084.549,9.084-5.244a20.083,20.083,0,0,0-9.084-15.742C782.947,198.892,778.88,201.242,778.88,207.035Z" transform="translate(-778.878 -200.549)" fill="#fff"/>
          <path id="Path_495" data-name="Path 495" d="M805.293,213.162a8.749,8.749,0,0,0-.684,3.573,20.083,20.083,0,0,0,9.084,15.742,7.7,7.7,0,0,0,4.483,1.172c-1.357,3.044-4.6,3.867-8.4,1.672a20.086,20.086,0,0,1-9.087-15.742C800.688,215.676,802.555,213.4,805.293,213.162Z" transform="translate(-734.497 -174.878)" fill="#a9ebff"/>
          <path id="Path_496" data-name="Path 496" d="M794.388,206.867a8.741,8.741,0,0,0-.685,3.573,20.085,20.085,0,0,0,9.088,15.742,7.7,7.7,0,0,0,4.483,1.172c-1.357,3.044-4.6,3.867-8.4,1.672a20.086,20.086,0,0,1-9.087-15.742C789.784,209.381,791.651,207.095,794.388,206.867Z" transform="translate(-756.686 -187.69)" fill="#a9ebff"/>
          <path id="Path_497" data-name="Path 497" d="M783.485,200.572a8.749,8.749,0,0,0-.684,3.573,20.077,20.077,0,0,0,9.087,15.742,7.7,7.7,0,0,0,4.479,1.172c-1.354,3.044-4.6,3.867-8.4,1.672a20.078,20.078,0,0,1-9.087-15.742C778.881,203.086,780.748,200.8,783.485,200.572Z" transform="translate(-778.879 -200.502)" fill="#a9ebff"/>
        </g>
        <g id="Group_232" data-name="Group 232" transform="translate(37.299 330.957)">
          <path id="Path_498" data-name="Path 498" d="M800.686,256.969a20.091,20.091,0,0,0,9.087,15.742c5.017,2.9,9.087.549,9.087-5.244a20.091,20.091,0,0,0-9.088-15.742C804.757,248.826,800.686,251.176,800.686,256.969Z" transform="translate(-734.495 -212.269)" fill="#fff"/>
          <path id="Path_499" data-name="Path 499" d="M789.783,250.674a20.092,20.092,0,0,0,9.087,15.742c5.017,2.9,9.087.549,9.087-5.244a20.1,20.1,0,0,0-9.088-15.742C793.854,242.531,789.783,244.881,789.783,250.674Z" transform="translate(-756.686 -225.082)" fill="#fff"/>
          <path id="Path_500" data-name="Path 500" d="M778.88,244.379a20.082,20.082,0,0,0,9.087,15.742c5.017,2.9,9.084.549,9.084-5.244a20.083,20.083,0,0,0-9.084-15.742C782.947,236.236,778.88,238.589,778.88,244.379Z" transform="translate(-778.878 -237.894)" fill="#fff"/>
          <path id="Path_501" data-name="Path 501" d="M805.293,250.506a8.749,8.749,0,0,0-.684,3.573,20.083,20.083,0,0,0,9.084,15.742,7.7,7.7,0,0,0,4.483,1.172c-1.357,3.042-4.6,3.867-8.4,1.672a20.091,20.091,0,0,1-9.087-15.742C800.688,253.02,802.555,250.73,805.293,250.506Z" transform="translate(-734.497 -212.222)" fill="#a9ebff"/>
          <path id="Path_502" data-name="Path 502" d="M794.388,244.211a8.741,8.741,0,0,0-.685,3.573,20.086,20.086,0,0,0,9.088,15.742,7.7,7.7,0,0,0,4.483,1.172c-1.357,3.042-4.6,3.867-8.4,1.672a20.092,20.092,0,0,1-9.088-15.742C789.784,246.725,791.651,244.435,794.388,244.211Z" transform="translate(-756.687 -225.035)" fill="#a9ebff"/>
          <path id="Path_503" data-name="Path 503" d="M783.485,237.916a8.749,8.749,0,0,0-.684,3.573,20.077,20.077,0,0,0,9.087,15.742,7.7,7.7,0,0,0,4.479,1.172c-1.354,3.042-4.6,3.867-8.4,1.672a20.082,20.082,0,0,1-9.087-15.742C778.881,240.43,780.748,238.14,783.485,237.916Z" transform="translate(-778.879 -237.847)" fill="#a9ebff"/>
        </g>
        <g id="Group_233" data-name="Group 233" transform="translate(196.34 218.233)">
          <path id="Path_504" data-name="Path 504" d="M849.447,219.834a20.078,20.078,0,0,1-9.088,15.742c-5.017,2.9-9.086.549-9.086-5.244a20.088,20.088,0,0,1,9.086-15.742C845.38,211.689,849.447,214.04,849.447,219.834Z" transform="translate(-831.274 -175.13)" fill="#fff"/>
          <path id="Path_505" data-name="Path 505" d="M860.352,213.539a20.077,20.077,0,0,1-9.087,15.742c-5.017,2.9-9.086.549-9.086-5.244a20.088,20.088,0,0,1,9.086-15.742C856.282,205.394,860.352,207.745,860.352,213.539Z" transform="translate(-809.08 -187.944)" fill="#fff"/>
          <path id="Path_506" data-name="Path 506" d="M871.252,207.244a20.092,20.092,0,0,1-9.086,15.742c-5.02,2.9-9.087.546-9.087-5.248A20.083,20.083,0,0,1,862.166,202C867.187,199.1,871.252,201.45,871.252,207.244Z" transform="translate(-786.89 -200.757)" fill="#fff"/>
          <path id="Path_507" data-name="Path 507" d="M844.384,213.37a8.747,8.747,0,0,1,.685,3.573,20.091,20.091,0,0,1-9.088,15.742,7.7,7.7,0,0,1-4.479,1.169c1.353,3.044,4.6,3.867,8.4,1.672a20.078,20.078,0,0,0,9.088-15.742C848.988,215.887,847.121,213.592,844.384,213.37Z" transform="translate(-830.815 -175.084)" fill="#a9ebff"/>
          <path id="Path_508" data-name="Path 508" d="M855.287,207.075a8.751,8.751,0,0,1,.684,3.576,20.082,20.082,0,0,1-9.087,15.742,7.7,7.7,0,0,1-4.48,1.169c1.357,3.044,4.6,3.867,8.4,1.672a20.078,20.078,0,0,0,9.087-15.742C859.891,209.592,858.024,207.3,855.287,207.075Z" transform="translate(-808.623 -187.897)" fill="#a9ebff"/>
          <path id="Path_509" data-name="Path 509" d="M866.19,200.78a8.753,8.753,0,0,1,.684,3.576,20.088,20.088,0,0,1-9.086,15.742,7.7,7.7,0,0,1-4.483,1.169c1.357,3.044,4.6,3.867,8.4,1.675A20.093,20.093,0,0,0,870.8,207.2C870.795,203.3,868.928,201.008,866.19,200.78Z" transform="translate(-786.431 -200.709)" fill="#a9ebff"/>
        </g>
        <g id="Group_234" data-name="Group 234" transform="translate(196.34 331.587)">
          <path id="Path_510" data-name="Path 510" d="M849.447,257.177a20.078,20.078,0,0,1-9.088,15.742c-5.017,2.9-9.086.549-9.086-5.244a20.083,20.083,0,0,1,9.086-15.742C845.38,249.034,849.447,251.39,849.447,257.177Z" transform="translate(-831.274 -212.473)" fill="#fff"/>
          <path id="Path_511" data-name="Path 511" d="M860.352,250.883a20.077,20.077,0,0,1-9.087,15.742c-5.017,2.9-9.086.549-9.086-5.244a20.083,20.083,0,0,1,9.086-15.742C856.282,242.738,860.352,245.088,860.352,250.883Z" transform="translate(-809.08 -225.289)" fill="#fff"/>
          <path id="Path_512" data-name="Path 512" d="M871.252,244.588a20.083,20.083,0,0,1-9.086,15.742c-5.02,2.9-9.087.549-9.087-5.244a20.078,20.078,0,0,1,9.088-15.742C867.187,236.443,871.252,238.794,871.252,244.588Z" transform="translate(-786.89 -238.101)" fill="#fff"/>
          <path id="Path_513" data-name="Path 513" d="M844.384,250.714a8.747,8.747,0,0,1,.685,3.573,20.086,20.086,0,0,1-9.088,15.742A7.7,7.7,0,0,1,831.5,271.2c1.353,3.042,4.6,3.867,8.4,1.672a20.078,20.078,0,0,0,9.088-15.742C848.988,253.228,847.121,250.942,844.384,250.714Z" transform="translate(-830.815 -212.429)" fill="#a9ebff"/>
          <path id="Path_514" data-name="Path 514" d="M855.287,244.419a8.745,8.745,0,0,1,.685,3.573,20.079,20.079,0,0,1-9.088,15.742,7.7,7.7,0,0,1-4.479,1.172c1.357,3.042,4.6,3.867,8.4,1.672a20.08,20.08,0,0,0,9.088-15.742C859.891,246.933,858.024,244.647,855.287,244.419Z" transform="translate(-808.623 -225.241)" fill="#a9ebff"/>
          <path id="Path_515" data-name="Path 515" d="M866.19,238.124a8.747,8.747,0,0,1,.684,3.573,20.083,20.083,0,0,1-9.086,15.742,7.7,7.7,0,0,1-4.483,1.172c1.357,3.042,4.6,3.867,8.4,1.673a20.083,20.083,0,0,0,9.086-15.742C870.795,240.638,868.928,238.352,866.19,238.124Z" transform="translate(-786.431 -238.054)" fill="#a9ebff"/>
        </g>
        <path id="Path_516" data-name="Path 516" d="M818.962,279.634,977.93,187.849V159.1L818.962,250.876Z" transform="translate(-659.996 -67.322)" fill="url(#linear-gradient-7)"/>
        <path id="Path_517" data-name="Path 517" d="M925.564,312.415l158.958-91.775L925.564,128.862,766.592,220.64Z" transform="translate(-766.589 -128.862)" fill="url(#linear-gradient-2)"/>
        <path id="Path_518" data-name="Path 518" d="M925.558,248.529l155.912-90.016,3.056,1.764L925.558,252.059,766.6,160.281l3.058-1.764Z" transform="translate(-766.583 -68.506)" fill="#a9ebff"/>
        <path id="Path_519" data-name="Path 519" d="M766.591,187.85l158.973,91.785v-28.76L766.6,159.094Z" transform="translate(-766.591 -67.323)" fill="url(#linear-gradient-9)"/>
      </g>
    </g>
    <path id="Path_520" data-name="Path 520" d="M38.4,80.536q-8.667,0-12.629-4.148a12.768,12.768,0,0,1-3.963-8.94,5.818,5.818,0,0,1,.684-2.95,5.07,5.07,0,0,1,1.882-1.882,5.818,5.818,0,0,1,2.95-.684,5.818,5.818,0,0,1,2.95.684A5.075,5.075,0,0,1,32.155,64.5a5.818,5.818,0,0,1,.684,2.95A5.566,5.566,0,0,1,31.826,70.9a4.707,4.707,0,0,1-2.4,1.752,6.553,6.553,0,0,0,3.78,2.349,18.669,18.669,0,0,0,5.162.737,11.464,11.464,0,0,0,6.5-1.935,11.269,11.269,0,0,0,4.286-5.715,24.838,24.838,0,0,0,1.383-8.572,23.313,23.313,0,0,0-1.521-8.9,10.99,10.99,0,0,0-4.379-5.53,11.693,11.693,0,0,0-6.268-1.8,12.09,12.09,0,0,0-5.53,1.843l-4.055,2.028V45.141L47.062,20.806H21.806V46.061a8.971,8.971,0,0,0,1.383,5.162,4.779,4.779,0,0,0,4.242,2.028,7.106,7.106,0,0,0,4.24-1.475,14.987,14.987,0,0,0,3.5-3.593,1.357,1.357,0,0,1,.46-.6.919.919,0,0,1,.6-.229,2.151,2.151,0,0,1,1.2.513,2.505,2.505,0,0,1,.645,1.711,11.739,11.739,0,0,1-.231,1.292,12.205,12.205,0,0,1-4.332,5.345,10.739,10.739,0,0,1-6.083,1.843q-8.213,0-11.339-3.225a12.039,12.039,0,0,1-3.133-8.757V20.806H.052V16.1h12.9V5.413L10.009,2.461V.066h8.572l3.225,1.658V16.1l33.366-.091,3.319,3.318L38.029,39.793a13.723,13.723,0,0,1,3.872-.922,16.719,16.719,0,0,1,7.465,2.12A15.425,15.425,0,0,1,55.817,46.7a20.481,20.481,0,0,1,2.909,6.914,29.309,29.309,0,0,1,.684,5.9A24.574,24.574,0,0,1,56.923,70.49a16.113,16.113,0,0,1-7.559,7.558,24.552,24.552,0,0,1-10.97,2.488Z" transform="translate(400.196 2247.552)" fill="#fff"/>
  </g>
</svg>
