<svg xmlns="http://www.w3.org/2000/svg" width="146.41" height="146.407" viewBox="0 0 146.41 146.407">
  <g id="_001-crowdfunding" data-name="001-crowdfunding" transform="translate(0.001 -0.242)">
    <path id="Path_434" data-name="Path 434" d="M136.227,63.267a10.2,10.2,0,0,0-9.911,7.859H113.6a40.294,40.294,0,0,0-10.283-24.613l9.02-9.02A10.15,10.15,0,1,0,109,34.068l-9.084,9.083A40.293,40.293,0,0,0,75.3,33.109V20.4a10.184,10.184,0,1,0-4.776-.146v12.9A40.3,40.3,0,0,0,46.228,43.395L37.22,34.386a10.17,10.17,0,1,0-3.451,3.3l9.1,9.1A40.3,40.3,0,0,0,32.8,71.425H20.17a10.186,10.186,0,1,0-.18,4.776H32.841a40.3,40.3,0,0,0,10.2,24.245L34.087,109.4a10.149,10.149,0,1,0,3.33,3.425l9.014-9.014A40.3,40.3,0,0,0,70.821,113.9v12.67a10.181,10.181,0,1,0,4.776,0V113.9a40.293,40.293,0,0,0,24.564-10.241l8.965,8.967a10.185,10.185,0,1,0,3.407-3.348l-9.006-9.006A40.292,40.292,0,0,0,113.6,75.9h12.753a10.18,10.18,0,1,0,9.88-12.635Zm-22.279-38.2a5.4,5.4,0,1,1-1.582,3.821A5.406,5.406,0,0,1,113.948,25.067ZM67.8,10.43a5.405,5.405,0,1,1,5.4,5.4A5.4,5.4,0,0,1,67.8,10.43ZM24.827,32.71a5.37,5.37,0,1,1,3.822,1.6A5.406,5.406,0,0,1,24.827,32.71ZM10.191,78.853A5.405,5.405,0,1,1,15.6,73.448,5.405,5.405,0,0,1,10.191,78.853Zm22.279,42.976a5.406,5.406,0,1,1-.239-7.859,2.351,2.351,0,0,0,.606.623,5.4,5.4,0,0,1-.366,7.236Zm46.144,14.637a5.4,5.4,0,1,1-5.841-5.383,2.28,2.28,0,0,0,.871,0A5.409,5.409,0,0,1,78.614,136.466Zm39.155-23.86a5.4,5.4,0,1,1-3.821,1.581A5.4,5.4,0,0,1,117.769,112.606ZM73.209,109.2a35.682,35.682,0,1,1,35.682-35.681A35.681,35.681,0,0,1,73.209,109.2Zm63.018-30.342a5.405,5.405,0,1,1,5.4-5.406A5.4,5.4,0,0,1,136.227,78.853Zm0,0" transform="translate(0 0)" fill="#1b5da0"/>
    <path id="Path_436" data-name="Path 436" d="M21.939,46.035q-4.958,0-7.22-2.373a7.347,7.347,0,0,1-2.272-5.112,3.326,3.326,0,0,1,.395-1.69,2.888,2.888,0,0,1,1.083-1.083,3.326,3.326,0,0,1,1.689-.395,3.331,3.331,0,0,1,1.69.395,2.888,2.888,0,0,1,1.083,1.083,3.326,3.326,0,0,1,.385,1.69,3.186,3.186,0,0,1-.578,1.978,2.691,2.691,0,0,1-1.372,1,3.75,3.75,0,0,0,2.161,1.343,10.681,10.681,0,0,0,2.951.424,6.556,6.556,0,0,0,3.716-1.107,6.445,6.445,0,0,0,2.455-3.268,14.209,14.209,0,0,0,.775-4.91,13.338,13.338,0,0,0-.871-5.088,6.286,6.286,0,0,0-2.5-3.162,6.691,6.691,0,0,0-3.586-1.025,6.917,6.917,0,0,0-3.153,1.049l-2.32,1.17v-1.17l10.44-13.92H12.452v14.44a5.131,5.131,0,0,0,.785,2.96,2.734,2.734,0,0,0,2.407,1.16,4.062,4.062,0,0,0,2.407-.842,8.572,8.572,0,0,0,2-2.055.775.775,0,0,1,.265-.342.525.525,0,0,1,.38-.135,1.232,1.232,0,0,1,.683.289,1.444,1.444,0,0,1,.371.963,6.738,6.738,0,0,1-.135.736A6.984,6.984,0,0,1,19.138,32.1a6.142,6.142,0,0,1-3.48,1.054q-4.693,0-6.488-1.844A6.852,6.852,0,0,1,7.379,26.3V11.86H0V9.174H7.384V3.057L5.694,1.372V0h4.9l1.844.963V9.174l19.1-.029,1.9,1.9-11.7,11.687a7.851,7.851,0,0,1,2.214-.529,9.564,9.564,0,0,1,4.269,1.213A8.823,8.823,0,0,1,31.9,26.685a11.716,11.716,0,0,1,1.661,3.957,16.769,16.769,0,0,1,.395,3.369,14.06,14.06,0,0,1-1.444,6.257A9.218,9.218,0,0,1,28.182,44.6a14.046,14.046,0,0,1-6.257,1.444Z" transform="translate(56.225 50.423)" fill="#1b5da0"/>
  </g>
</svg>
