<svg xmlns="http://www.w3.org/2000/svg" width="124.46" height="143.975" viewBox="0 0 124.46 143.975">
  <g id="_004-governance" data-name="004-governance" transform="translate(-34.7)">
    <g id="Group_220" data-name="Group 220" transform="translate(34.7 0)">
      <path id="Path_440" data-name="Path 440" d="M155.645,127.481H153.08v-4.6a9.262,9.262,0,0,0-.614-3.886,3.136,3.136,0,0,0-2.9-1.905h-3v-43h3a3.519,3.519,0,0,0,3.515-3.515V65.258h2.538a2.671,2.671,0,0,0,1.356-4.973L131.035,45a2.109,2.109,0,1,0-2.142,3.634l21.055,12.41H43.911L96.93,29.79,120.4,43.625a2.109,2.109,0,0,0,2.142-3.634L99.039,26.136V20.9h7.582v6.7a2.109,2.109,0,0,0,2.109,2.109h24.746a2.956,2.956,0,0,0,2.953-2.953V14.284a2.956,2.956,0,0,0-2.953-2.953h-8.527V5.471A2.956,2.956,0,0,0,122,2.518H99.039V2.109a2.109,2.109,0,0,0-4.218,0V26.136L36.885,60.285a2.671,2.671,0,0,0,1.356,4.973H40.78v5.324A3.519,3.519,0,0,0,44.295,74.1h3v43h-3a3.519,3.519,0,0,0-3.515,3.515v6.872H38.215A3.519,3.519,0,0,0,34.7,131v9.464a3.519,3.519,0,0,0,3.515,3.515h117.43a3.519,3.519,0,0,0,3.515-3.515V131a3.519,3.519,0,0,0-3.515-3.515ZM110.839,23.8V20.9h4.643Zm13.127-3.228a2.105,2.105,0,0,0,.983-1.781V15.55h7.261V25.5H116.085ZM99.039,6.736h21.692v9.947H99.039Zm26.5,110.358v-43h5.877v43ZM81.367,106.716a2.109,2.109,0,0,0-2.109,2.109v7.954H72.54V74.1h6.718V98.983a2.109,2.109,0,1,0,4.218,0V74.1h5.877v43H83.476v-8.269A2.109,2.109,0,0,0,81.367,106.716Zm12.2,10.063V74.1h6.718v42.682ZM104.507,74.1h5.877v43h-5.877ZM114.6,116.779V74.1h6.718v42.682Zm27.749,0h-6.718V74.1h6.718ZM45,65.258H148.862v4.621H45ZM58.227,74.1v42.682H51.509V74.1Zm4.218,0h5.877v43H62.445Zm92.5,65.661H38.918V131.7H125.05a2.109,2.109,0,1,0,0-4.218H45v-6.169H148.771a11.026,11.026,0,0,1,.091,1.573v4.6h-13.97a2.109,2.109,0,1,0,0,4.218h20.05Z" transform="translate(-34.7 0)" fill="#1b5da0"/>
      <path id="Path_441" data-name="Path 441" d="M222.754,145.352A9.349,9.349,0,1,0,232.1,136,9.359,9.359,0,0,0,222.754,145.352Zm14.48,0a5.131,5.131,0,1,1-5.131-5.131A5.136,5.136,0,0,1,237.234,145.352Z" transform="translate(-169.873 -97.759)" fill="#1b5da0"/>
    </g>
  </g>
</svg>
