<svg xmlns="http://www.w3.org/2000/svg" width="416.656" height="348.17" viewBox="0 0 416.656 348.17">
  <g id="Group_242" data-name="Group 242" transform="translate(-1257.822 -5024)">
    <g id="Group_238" data-name="Group 238" transform="translate(1257.822 5024)">
      <g id="Group_19" data-name="Group 19" transform="translate(15.759 0)" opacity="0.41">
        <g id="Group_18" data-name="Group 18">
          <path id="Path_21" data-name="Path 21" d="M509.558,342a119.611,119.611,0,0,0-.548-20.41c-3.6-31.8-19.919-61.795-43.934-82.954-8.568-7.549-18.316-14.312-23.892-24.278-9.391-16.781-8.679-36.068-20.333-52.638a98.57,98.57,0,0,0-47.844-36.169C315.838,105.746,235.8,138,243,206.88c.026.246.055.606.085,1.061a25.073,25.073,0,0,1-24.563,26.676c-52.748,1.251-98.151,41.919-107.867,93.433-6.248,33.13,3.983,69.441,28.218,92.878,18.089,17.493,42.36,27.1,66.643,33.708,48.689,13.242,99.924,16.017,150.126,10.955,46.992-4.741,96.56-18.249,126.951-54.4C498.809,391.9,508.1,367.17,509.558,342Z" transform="translate(-108.866 -119.791)" fill="#c5d9ff"/>
        </g>
      </g>
      <g id="Group_21" data-name="Group 21" transform="translate(59.18 51.38)" opacity="0.88">
        <g id="Group_20" data-name="Group 20">
          <path id="Path_22" data-name="Path 22" d="M455.946,333.136a93.889,93.889,0,0,0-.43-15.988c-2.822-24.915-15.605-48.409-34.417-64.985-6.713-5.914-14.349-11.212-18.717-19.019-7.356-13.146-6.8-28.256-15.928-41.236a77.219,77.219,0,0,0-37.479-28.335c-44.787-15.517-107.488,9.75-101.842,63.709.02.194.042.475.065.831a19.64,19.64,0,0,1-19.243,20.9c-41.321.981-76.889,32.839-84.5,73.194-4.9,25.953,3.119,54.4,22.1,72.759,14.171,13.705,33.185,21.234,52.207,26.407,38.141,10.374,78.279,12.547,117.606,8.581,36.813-3.712,75.644-14.3,99.452-42.617A93,93,0,0,0,455.946,333.136Z" transform="translate(-142.05 -159.057)" fill="#c5d9ff"/>
        </g>
      </g>
      <ellipse id="Ellipse_5" data-name="Ellipse 5" cx="12.9" cy="12.9" rx="12.9" ry="12.9" transform="translate(376.705 60.956) rotate(-76.66)" fill="#c5d9ff" opacity="0.31"/>
      <circle id="Ellipse_6" data-name="Ellipse 6" cx="14.959" cy="14.959" r="14.959" transform="translate(87.75 36.421) rotate(-45)" fill="#c5d9ff" opacity="0.31"/>
      <ellipse id="Ellipse_7" data-name="Ellipse 7" cx="19.32" cy="19.32" rx="19.32" ry="19.32" transform="translate(0 304.442)" fill="#c5d9ff" opacity="0.31"/>
    </g>
    <g id="Group_239" data-name="Group 239" transform="translate(1361.108 5057.96)">
      <g id="Group_23" data-name="Group 23" transform="translate(0 0)">
        <ellipse id="Ellipse_8" data-name="Ellipse 8" cx="68.473" cy="68.473" rx="68.473" ry="68.473" transform="translate(0 0.416)" fill="#2c7df7"/>
        <path id="Path_23" data-name="Path 23" d="M287.407,263.946a.655.655,0,0,1-.462-1.117,67.819,67.819,0,1,0-95.911-95.911.654.654,0,0,1-.925-.925,69.128,69.128,0,1,1,97.761,97.761A.653.653,0,0,1,287.407,263.946Z" transform="translate(-171.389 -145.745)" fill="#243762"/>
        <ellipse id="Ellipse_9" data-name="Ellipse 9" cx="52.106" cy="52.106" rx="52.106" ry="52.106" transform="translate(16.367 16.783)" fill="#fff"/>
        <path id="Path_24" data-name="Path 24" d="M240.526,263.593a52.761,52.761,0,0,1,0-105.522.654.654,0,0,1,0,1.308,51.452,51.452,0,0,0,0,102.9.654.654,0,0,1,0,1.309Z" transform="translate(-172.053 -141.943)" fill="#243762"/>
        <path id="Path_25" data-name="Path 25" d="M242.989,212.96H228.814a5.279,5.279,0,0,1-5.273-5.273V188.035a4.58,4.58,0,0,1,9.159,0V203.8h10.289a4.58,4.58,0,1,1,0,9.159Z" transform="translate(-161.017 -134.112)" fill="#243762"/>
      </g>
    </g>
    <g id="Group_240" data-name="Group 240" transform="translate(1312.451 5086.814)">
      <path id="Path_26" data-name="Path 26" d="M149.393,231.466l73.762,73.761a36.947,36.947,0,0,0,52.251,0l8.819-8.818a8.525,8.525,0,0,0,0-12.058l-30.1-30.1a8.528,8.528,0,0,0-12.058,0l-15.05,15.05a3.014,3.014,0,0,1-4.263,0l-36.5-36.5a2.974,2.974,0,0,1,0-4.207l14.841-14.841a8.525,8.525,0,0,0,0-12.058L170.18,170.78a8.527,8.527,0,0,0-11.952-.1l-8.374,8.088A36.947,36.947,0,0,0,149.393,231.466Z" transform="translate(-138.572 -167.646)" fill="#243762"/>
      <g id="Group_25" data-name="Group 25" transform="translate(10.293 0)">
        <path id="Path_27" data-name="Path 27" d="M149.043,180.249,190.491,221.7l1.421-1.421,6.523-6.524a8.525,8.525,0,0,0,0-12.058L167.52,170.78a8.527,8.527,0,0,0-11.952-.1l-8.374,8.088Z" transform="translate(-146.205 -167.646)" fill="#ecf1f7"/>
        <path id="Path_28" data-name="Path 28" d="M190.724,222.771l-41.885-41.883-2.4-1.929,8.909-8.6a9.226,9.226,0,0,1,12.869.111l30.913,30.914a9.191,9.191,0,0,1,0,12.984Zm-42.309-43.9,1.324,1.069,40.984,40.983,7.481-7.481a7.871,7.871,0,0,0,0-11.134l-30.913-30.914a7.909,7.909,0,0,0-11.036-.1Z" transform="translate(-146.438 -167.796)" fill="#243762"/>
      </g>
      <g id="Group_26" data-name="Group 26" transform="translate(94.608 82.894)">
        <path id="Path_29" data-name="Path 29" d="M213.48,243.6l41.446,41.446,1.421-1.421,6.524-6.523a8.525,8.525,0,0,0,0-12.058l-30.914-30.914a8.525,8.525,0,0,0-11.952-.1l-8.376,8.088Z" transform="translate(-210.642 -230.997)" fill="#ecf1f7"/>
        <path id="Path_30" data-name="Path 30" d="M255.159,286.122l-41.885-41.885-2.4-1.927,8.91-8.6a9.227,9.227,0,0,1,12.869.113l30.913,30.916a9.178,9.178,0,0,1,0,12.982Zm-42.307-43.9,1.323,1.069,40.984,40.984,7.482-7.482a7.871,7.871,0,0,0,0-11.131l-30.914-30.916a7.91,7.91,0,0,0-11.034-.1Z" transform="translate(-210.875 -231.147)" fill="#243762"/>
      </g>
      <g id="Group_27" data-name="Group 27" transform="translate(15.652 7.063)">
        <line id="Line_1" data-name="Line 1" x2="25.254" y2="25.254" transform="translate(0.654 0.654)" fill="#ecf1f7"/>
        <path id="Path_31" data-name="Path 31" d="M176.442,199.756a.653.653,0,0,1-.463-.192L150.725,174.31a.654.654,0,0,1,.925-.925L176.9,198.639a.655.655,0,0,1-.462,1.117Z" transform="translate(-150.534 -173.194)" fill="#243762"/>
      </g>
      <g id="Group_28" data-name="Group 28" transform="translate(116.107 107.518)">
        <line id="Line_2" data-name="Line 2" x2="25.254" y2="25.254" transform="translate(0.654 0.654)" fill="#ecf1f7"/>
        <path id="Path_32" data-name="Path 32" d="M253.214,276.528a.65.65,0,0,1-.462-.192L227.5,251.082a.654.654,0,0,1,.925-.925l25.255,25.254a.655.655,0,0,1-.463,1.117Z" transform="translate(-227.306 -249.966)" fill="#243762"/>
      </g>
    </g>
    <g id="Group_241" data-name="Group 241" transform="translate(1451.508 5061.418)">
      <path id="Path_33" data-name="Path 33" d="M358.626,436.96l-96.695-14.3a20.013,20.013,0,0,1-16.869-22.726l34.679-234.458a20.013,20.013,0,0,1,22.726-16.869l96.693,14.3a20.013,20.013,0,0,1,16.869,22.726L381.351,420.091A20.012,20.012,0,0,1,358.626,436.96Z" transform="translate(-244.844 -148.387)" fill="#243762"/>
      <rect id="Rectangle_5" data-name="Rectangle 5" width="223.815" height="121.358" transform="translate(9.702 243.514) rotate(-81.586)" fill="#ecf1f7"/>
      <rect id="Rectangle_6" data-name="Rectangle 6" width="16.795" height="121.358" transform="translate(39.993 38.721) rotate(-81.586)" fill="#2c7df7"/>
      <path id="Path_34" data-name="Path 34" d="M298.432,361.465a7.837,7.837,0,1,1,7.746-6.69A7.824,7.824,0,0,1,298.432,361.465Zm-.021-14.365a6.548,6.548,0,1,0,.971.072A6.581,6.581,0,0,0,298.411,347.1Z" transform="translate(-230.732 -87.491)" fill="#ecf1f7"/>
      <path id="Path_35" data-name="Path 35" d="M310.436,164.854a2.546,2.546,0,0,1-.37-.027,2.52,2.52,0,0,1-1.133-4.516,2.52,2.52,0,0,1,3.994,2.392h0A2.524,2.524,0,0,1,310.436,164.854Zm-.005-3.73a1.21,1.21,0,1,0,1.2,1.39h0a1.211,1.211,0,0,0-1.2-1.39Z" transform="translate(-225.388 -144.862)" fill="#ecf1f7"/>
      <path id="Path_36" data-name="Path 36" d="M347.459,170.33a2.585,2.585,0,0,1-.374-.027l-30.628-4.53a2.52,2.52,0,1,1,.737-4.985l30.628,4.53a2.52,2.52,0,0,1-.362,5.013Zm-30.634-8.262a1.212,1.212,0,0,0-.177,2.41l30.628,4.53a1.212,1.212,0,0,0,.355-2.4L317,162.081A1.375,1.375,0,0,0,316.825,162.068Z" transform="translate(-223.416 -144.57)" fill="#ecf1f7"/>
      <path id="Path_37" data-name="Path 37" d="M365.562,299.216l-83.746-12.386a2.494,2.494,0,0,0-2.834,2.1l-3.214,21.727a2.5,2.5,0,0,0,2.1,2.834l71.6,10.59,7.376,10.173,1.315-8.889,3.456.512a2.5,2.5,0,0,0,2.834-2.1l3.214-21.726A2.5,2.5,0,0,0,365.562,299.216Z" transform="translate(-235.313 -105.688)" fill="#c5d9ff"/>
      <path id="Path_38" data-name="Path 38" d="M349.626,324.893a.586.586,0,0,1-.1-.008l-71.6-10.591a3.146,3.146,0,0,1-2.655-3.576l3.214-21.726a3.138,3.138,0,0,1,3.576-2.655L301.42,289.2a.653.653,0,1,1-.191,1.293l-19.354-2.864a1.85,1.85,0,0,0-2.091,1.554l-3.214,21.725A1.84,1.84,0,0,0,278.122,313l71.6,10.592a.654.654,0,0,1-.1,1.3Z" transform="translate(-235.467 -105.843)" fill="#243762"/>
      <path id="Path_39" data-name="Path 39" d="M375.739,230.415l-83.746-12.386a2.5,2.5,0,0,0-2.834,2.1l-3.214,21.726a2.5,2.5,0,0,0,2.1,2.834l71.6,10.59,7.376,10.174,1.315-8.887,3.457.51a2.494,2.494,0,0,0,2.833-2.1l3.214-21.727A2.494,2.494,0,0,0,375.739,230.415Z" transform="translate(-232.174 -126.912)" fill="#c5d9ff"/>
      <path id="Path_40" data-name="Path 40" d="M367.59,261.984l-8.156-11.25-71.327-10.549a3.155,3.155,0,0,1-2.655-3.577.655.655,0,1,1,1.3.191,1.841,1.841,0,0,0,1.552,2.091l71.87,10.63,6.6,9.1,1.176-7.948,4.1.607a1.842,1.842,0,0,0,2.091-1.553l2.137-14.452a.655.655,0,1,1,1.3.191l-2.138,14.454a3.148,3.148,0,0,1-3.576,2.655l-2.809-.416Z" transform="translate(-232.328 -121.757)" fill="#243762"/>
      <path id="Path_41" data-name="Path 41" d="M274.983,248.888l83.746,12.387a2.494,2.494,0,0,1,2.1,2.834l-3.214,21.726a2.5,2.5,0,0,1-2.834,2.1l-71.6-10.591-10.006,7.6,1.315-8.889-3.456-.512a2.5,2.5,0,0,1-2.1-2.834l3.214-21.726A2.5,2.5,0,0,1,274.983,248.888Z" transform="translate(-237.421 -117.392)" fill="#2c7df7"/>
      <path id="Path_42" data-name="Path 42" d="M345.6,285.849a3.162,3.162,0,0,1-.468-.035L300.44,279.2a.654.654,0,1,1,.192-1.293l44.694,6.609a1.84,1.84,0,0,0,2.091-1.552l3.214-21.727a1.845,1.845,0,0,0-1.553-2.091.654.654,0,1,1,.192-1.294,3.154,3.154,0,0,1,2.655,3.577l-3.214,21.726a3.153,3.153,0,0,1-3.109,2.69Z" transform="translate(-227.866 -114.62)" fill="#243762"/>
      <rect id="Rectangle_7" data-name="Rectangle 7" width="20.593" height="121.358" transform="translate(9.702 243.514) rotate(-81.586)" fill="#fff"/>
      <path id="Path_43" data-name="Path 43" d="M271.527,330.714a7.3,7.3,0,1,1-6.155-8.292A7.3,7.3,0,0,1,271.527,330.714Z" transform="translate(-241.094 -94.724)" fill="#c5d9ff"/>
      <path id="Path_44" data-name="Path 44" d="M355.646,349.648a6.425,6.425,0,0,1-.956-.071l-77.8-11.508a6.51,6.51,0,1,1,1.905-12.881L356.6,336.7a6.511,6.511,0,0,1-.95,12.951Zm-.764-1.365a5.2,5.2,0,0,0,4.938-8.247,5.159,5.159,0,0,0-3.416-2.045l-77.8-11.509a5.2,5.2,0,1,0-1.522,10.293Z" transform="translate(-236.674 -93.869)" fill="#2c7df7" opacity="0.33"/>
      <path id="Path_45" data-name="Path 45" d="M283.6,175.617a2.637,2.637,0,0,1-.377-.027A2.562,2.562,0,0,1,282.071,171a2.528,2.528,0,0,1,1.9-.476,2.564,2.564,0,0,1,2.16,2.909h0A2.567,2.567,0,0,1,283.6,175.617Zm-.005-3.816a1.254,1.254,0,0,0-.181,2.494,1.257,1.257,0,0,0,1.424-1.057h0a1.251,1.251,0,0,0-1.056-1.422A1.286,1.286,0,0,0,283.594,171.8Z" transform="translate(-233.68 -141.568)" fill="#fff"/>
      <path id="Path_46" data-name="Path 46" d="M289.016,176.418a2.662,2.662,0,0,1-.381-.027,2.561,2.561,0,1,1,.381.027Zm-.007-3.816a1.253,1.253,0,0,0-.183,2.493,1.251,1.251,0,0,0,1.422-1.056h0a1.25,1.25,0,0,0-1.239-1.437Z" transform="translate(-232.01 -141.321)" fill="#fff"/>
      <path id="Path_47" data-name="Path 47" d="M294.319,177.2a2.616,2.616,0,0,1-.376-.027,2.562,2.562,0,1,1,.376.027Zm0-3.816a1.254,1.254,0,0,0-.181,2.494,1.254,1.254,0,0,0,.366-2.481A1.46,1.46,0,0,0,294.315,173.387Z" transform="translate(-230.372 -141.079)" fill="#fff"/>
      <path id="Path_48" data-name="Path 48" d="M394.755,196.417a.786.786,0,0,1-.1-.007L283.532,179.974a.654.654,0,1,1,.191-1.294L394.85,195.117a.654.654,0,0,1-.1,1.3Z" transform="translate(-233.082 -139.045)" fill="#243762"/>
      <path id="Path_49" data-name="Path 49" d="M347.129,302.49a.614.614,0,0,1-.1-.008l-59.293-8.769a.652.652,0,0,1-.551-.742.644.644,0,0,1,.743-.551l59.293,8.769a.654.654,0,0,1-.1,1.3Z" transform="translate(-231.784 -103.958)" fill="#fff"/>
      <path id="Path_50" data-name="Path 50" d="M312.273,302.859a.608.608,0,0,1-.1-.008l-25.236-3.733a.653.653,0,1,1,.191-1.293l25.237,3.733a.654.654,0,0,1-.1,1.3Z" transform="translate(-232.031 -102.29)" fill="#fff"/>
      <path id="Path_51" data-name="Path 51" d="M304,306.806a.6.6,0,0,1-.1-.008l-17.713-2.62a.654.654,0,1,1,.192-1.293l17.712,2.62a.654.654,0,0,1-.1,1.3Z" transform="translate(-232.261 -100.729)" fill="#fff"/>
      <path id="Path_52" data-name="Path 52" d="M338.5,306.738a.606.606,0,0,1-.1-.008l-26.081-3.857a.653.653,0,1,1,.191-1.293l26.081,3.856a.654.654,0,0,1-.094,1.3Z" transform="translate(-224.201 -101.132)" fill="#fff"/>
      <g id="Group_30" data-name="Group 30" transform="translate(47.111 139.251)">
        <path id="Path_53" data-name="Path 53" d="M341.6,264.887a.6.6,0,0,1-.1-.008l-59.294-8.77a.653.653,0,0,1-.551-.743.645.645,0,0,1,.743-.55l59.293,8.77a.654.654,0,0,1-.1,1.3Z" transform="translate(-280.602 -254.808)" fill="#fff"/>
        <path id="Path_54" data-name="Path 54" d="M306.74,265.254a.488.488,0,0,1-.1-.008l-25.236-3.732a.653.653,0,1,1,.191-1.293l25.237,3.732a.654.654,0,0,1-.1,1.3Z" transform="translate(-280.849 -253.14)" fill="#fff"/>
        <path id="Path_55" data-name="Path 55" d="M332.895,274.382a.664.664,0,0,1-.1-.008l-51.172-7.939a.654.654,0,0,1,.2-1.293l51.172,7.939a.654.654,0,0,1-.1,1.3Z" transform="translate(-280.781 -251.622)" fill="#fff"/>
        <path id="Path_56" data-name="Path 56" d="M332.967,269.135a.6.6,0,0,1-.1-.008L306.79,265.27a.653.653,0,1,1,.191-1.293l26.081,3.857a.654.654,0,0,1-.094,1.3Z" transform="translate(-273.019 -251.982)" fill="#fff"/>
      </g>
      <path id="Path_57" data-name="Path 57" d="M283.2,186.468l83.746,12.387a2.5,2.5,0,0,1,2.1,2.834l-3.214,21.726a2.5,2.5,0,0,1-2.834,2.1l-71.6-10.59-10,7.6,1.314-8.889-3.456-.51a2.5,2.5,0,0,1-2.1-2.834l3.214-21.727A2.5,2.5,0,0,1,283.2,186.468Z" transform="translate(-234.885 -136.648)" fill="#2c7df7"/>
      <path id="Path_58" data-name="Path 58" d="M357.075,223.111a.779.779,0,0,1-.1-.007.656.656,0,0,1-.552-.743l3.214-21.726a1.841,1.841,0,0,0-1.552-2.091l-52-7.691a.652.652,0,0,1-.551-.742.664.664,0,0,1,.743-.552l52,7.691a3.148,3.148,0,0,1,2.655,3.576l-3.214,21.727A.654.654,0,0,1,357.075,223.111Z" transform="translate(-226.122 -135.688)" fill="#243762"/>
      <g id="Group_31" data-name="Group 31" transform="translate(57.867 57.576)">
        <path id="Path_59" data-name="Path 59" d="M349.817,202.467a.8.8,0,0,1-.1-.007l-59.294-8.771a.654.654,0,1,1,.192-1.294l59.293,8.771a.654.654,0,0,1-.094,1.3Z" transform="translate(-288.822 -192.389)" fill="#fff"/>
        <path id="Path_60" data-name="Path 60" d="M314.959,202.835a.8.8,0,0,1-.1-.007L289.627,199.1a.654.654,0,0,1,.192-1.294l25.236,3.732a.654.654,0,0,1-.1,1.3Z" transform="translate(-289.068 -190.722)" fill="#fff"/>
        <path id="Path_61" data-name="Path 61" d="M341.114,211.962a.664.664,0,0,1-.1-.008l-51.172-7.939a.653.653,0,0,1-.546-.747.661.661,0,0,1,.747-.546l51.172,7.939a.654.654,0,0,1-.1,1.3Z" transform="translate(-289.001 -189.203)" fill="#fff"/>
        <path id="Path_62" data-name="Path 62" d="M341.186,206.715a.605.605,0,0,1-.1-.008l-26.081-3.857a.654.654,0,0,1,.191-1.294l26.082,3.857a.655.655,0,0,1-.1,1.3Z" transform="translate(-281.238 -189.563)" fill="#fff"/>
      </g>
      <path id="Path_63" data-name="Path 63" d="M357.347,234.326a.606.606,0,0,1-.1-.008l-59.293-8.77a.655.655,0,0,1,.191-1.3l59.294,8.771a.655.655,0,0,1-.1,1.3Z" transform="translate(-228.632 -124.986)" fill="#fff"/>
      <path id="Path_64" data-name="Path 64" d="M322.49,234.694a.806.806,0,0,1-.1-.007l-25.237-3.733a.654.654,0,1,1,.192-1.294l25.236,3.733a.654.654,0,0,1-.094,1.3Z" transform="translate(-228.879 -123.318)" fill="#fff"/>
      <path id="Path_65" data-name="Path 65" d="M314.217,238.641a.606.606,0,0,1-.1-.008l-17.712-2.618a.655.655,0,1,1,.191-1.3l17.712,2.62a.654.654,0,0,1-.094,1.3Z" transform="translate(-229.11 -121.757)" fill="#fff"/>
      <path id="Path_66" data-name="Path 66" d="M348.716,238.573a.826.826,0,0,1-.1-.007l-26.081-3.859a.654.654,0,1,1,.192-1.294l26.081,3.857a.655.655,0,0,1-.1,1.3Z" transform="translate(-221.049 -122.16)" fill="#fff"/>
    </g>
  </g>
</svg>
