<svg xmlns="http://www.w3.org/2000/svg" width="154" height="144.355" viewBox="0 0 154 144.355">
  <g id="_002-rocket" data-name="002-rocket" transform="translate(0 -16.032)">
    <path id="Path_437" data-name="Path 437" d="M151.744,235.913h-9.8V153.78a9.5,9.5,0,0,0-9.489-9.489H103.523a2.256,2.256,0,1,0,0,4.512h28.932a4.983,4.983,0,0,1,4.977,4.977v82.133h-7.721a18.957,18.957,0,0,0,.177-2.566,19.155,19.155,0,0,0-19.134-19.134,18.87,18.87,0,0,0-4.231.483,14.267,14.267,0,0,0-12.646-7.717,13.928,13.928,0,0,0-5.05.939,11.9,11.9,0,0,0-23.656,0,13.928,13.928,0,0,0-5.05-.939A14.267,14.267,0,0,0,47.476,214.7a18.855,18.855,0,0,0-4.231-.483,19.155,19.155,0,0,0-19.134,19.134,18.952,18.952,0,0,0,.177,2.566H16.567V153.78a4.983,4.983,0,0,1,4.977-4.977H50.478a2.256,2.256,0,1,0,0-4.512H21.545a9.5,9.5,0,0,0-9.489,9.489v82.133h-9.8A2.256,2.256,0,0,0,0,238.169v4.822a7.086,7.086,0,0,0,7.078,7.078H146.922A7.086,7.086,0,0,0,154,242.991v-4.822A2.256,2.256,0,0,0,151.744,235.913Zm-2.256,7.078a2.569,2.569,0,0,1-2.566,2.566H7.078a2.569,2.569,0,0,1-2.566-2.566v-2.566H33.6a2.256,2.256,0,1,0,0-4.512H28.854a14.481,14.481,0,0,1-.231-2.566,14.588,14.588,0,0,1,19.4-13.8,2.256,2.256,0,0,0,2.873-1.4,9.777,9.777,0,0,1,9.226-6.648,9.648,9.648,0,0,1,6.263,2.334,2.256,2.256,0,0,0,3.6-2.4,7.248,7.248,0,0,1-.378-2.19,7.388,7.388,0,1,1,14.777,0,7.248,7.248,0,0,1-.378,2.19,2.256,2.256,0,0,0,3.6,2.4,9.65,9.65,0,0,1,6.263-2.334,9.777,9.777,0,0,1,9.226,6.648,2.256,2.256,0,0,0,2.873,1.4,14.6,14.6,0,0,1,19.17,16.371h-81.9a2.256,2.256,0,1,0,0,4.512H149.488Z" transform="translate(0 -89.681)" fill="#1b5da0"/>
    <path id="Path_438" data-name="Path 438" d="M154.506,82.343a9.507,9.507,0,0,0-2.2,6.075v7.026a2.256,2.256,0,0,0,3.365,1.965l16.065-9.065q.918,1.677,1.947,3.3l-2.019,8.078a2.256,2.256,0,0,0,2.188,2.8h19.289a2.256,2.256,0,0,0,2.188-2.8l-2.019-8.078q1.028-1.619,1.947-3.3l16.065,9.065a2.256,2.256,0,0,0,3.365-1.965V88.418a9.507,9.507,0,0,0-2.2-6.075L201.777,69.5a61.562,61.562,0,0,0,.853-10.219A60.541,60.541,0,0,0,197.9,35.642a58.107,58.107,0,0,0-12.817-18.962,2.256,2.256,0,0,0-3.165,0A58.1,58.1,0,0,0,169.1,35.642a60.542,60.542,0,0,0-4.734,23.635,61.572,61.572,0,0,0,.85,10.2Zm2.312,9.237V88.418a4.987,4.987,0,0,1,1.154-3.186l8.456-10.147a59.814,59.814,0,0,0,3.289,9.218Zm19.922,6.429,1.283-5.133h10.944l1.283,5.133ZM209.02,85.232a4.987,4.987,0,0,1,1.153,3.186V91.58l-12.9-7.278a59.83,59.83,0,0,0,3.289-9.218ZM183.5,21.524a53.871,53.871,0,0,1,9.288,13.8H174.208A53.873,53.873,0,0,1,183.5,21.524ZM172.328,39.833h22.334a56.53,56.53,0,0,1,3.454,19.444,55.777,55.777,0,0,1-8.083,29.089H176.957a55.776,55.776,0,0,1-8.083-29.089,56.539,56.539,0,0,1,3.454-19.444Z" transform="translate(-106.496)" fill="#1b5da0"/>
    <path id="Path_439" data-name="Path 439" d="M243.43,129.731a9.489,9.489,0,1,0-9.489,9.489A9.5,9.5,0,0,0,243.43,129.731Zm-14.466,0a4.977,4.977,0,1,1,4.977,4.977A4.983,4.983,0,0,1,228.964,129.731Z" transform="translate(-156.941 -72.865)" fill="#1b5da0"/>
  </g>
</svg>
