<svg xmlns="http://www.w3.org/2000/svg" width="1585.205" height="953.268" viewBox="0 0 1585.205 953.268">
  <g id="Group_219" data-name="Group 219" transform="translate(0 -39.188)" opacity="0.622">
    <path id="Path_432" data-name="Path 432" d="M1541.26,40.607a13.113,13.113,0,0,0-11.865,0c-2.462,1.421-3.073,3.509-1.833,5.258L1343.876,151.917l0,133.871-44.748,25.834-.005,145.612-153.287,88.5-23.886-13.789,118.2-68.246,0-79.82-.47-.272-134.394-77.59V278.948l76.005-43.881a13.257,13.257,0,0,0,10.83-.489c3.276-1.892,3.276-4.959,0-6.848a13.105,13.105,0,0,0-11.865,0c-2.954,1.7-3.218,4.357-.845,6.251l-76,43.881V307.1l.468.272,134.394,77.59,0,77.654-89.311,51.564,0-33.255,40.943-23.638a13.257,13.257,0,0,0,10.83-.489c3.276-1.892,3.276-4.959,0-6.851a13.113,13.113,0,0,0-11.865,0c-2.954,1.707-3.218,4.359-.845,6.254l-40.941,23.641,0,35.421-27.012,15.6-31.942-18.441V454.5l60.251-34.787V379.682l-.47-.272-126.832-73.226c2.375-1.894,2.111-4.547-.843-6.254a13.113,13.113,0,0,0-11.865,0c-3.276,1.892-3.276,4.959,0,6.851a13.257,13.257,0,0,0,10.83.489l127.3,73.5v37.868l-58.372,33.7,0-39.915-.47-.275-77.6-44.8c2.375-1.894,2.111-4.547-.843-6.254a13.113,13.113,0,0,0-11.865,0c-3.276,1.892-3.276,4.959,0,6.851a13.266,13.266,0,0,0,10.83.486l78.069,45.073,0,97.834-22.436-12.954-36.964,21.342-33.482-19.329V453.421l-.47-.272-88.513-51.1v-44.28a11.588,11.588,0,0,0,4.993-1.366c3.276-1.892,3.279-4.959,0-6.851a13.108,13.108,0,0,0-11.863,0c-3.276,1.892-3.276,4.959,0,6.851a11.577,11.577,0,0,0,4.991,1.366v45.363l.47.272,88.513,51.1v44.8l-144.055-83.17,0-88.161,78.127-45.107,71.7,0,.217-.124,123.028-71.028a13.268,13.268,0,0,0,10.83-.489c3.276-1.892,3.276-4.959,0-6.851a13.113,13.113,0,0,0-11.865,0c-2.954,1.707-3.218,4.359-.845,6.254L996.758,280.987l-67.939,0L1154.83,150.5a13.256,13.256,0,0,0,10.83-.489c3.276-1.892,3.276-4.959,0-6.851a13.108,13.108,0,0,0-11.863,0c-2.956,1.707-3.221,4.359-.845,6.254L845.559,326.889l0,90.33.47.272,178.946,103.316L988.954,541.6,683.44,365.209l0-105.25-.47-.275L579.075,199.7c2.373-1.894,2.108-4.547-.845-6.254a13.113,13.113,0,0,0-11.865,0c-3.276,1.892-3.276,4.959,0,6.851a13.257,13.257,0,0,0,10.83.489l104.37,60.256,0,105.252.468.272L987.078,542.686l-34.291,19.8L650.653,388.044H470.473L357.86,323.027l0-99.915a10.533,10.533,0,0,0,3.258-1.147c3.276-1.889,3.276-4.956,0-6.848a13.113,13.113,0,0,0-11.865,0c-3.276,1.892-3.276,4.959,0,6.848a12.462,12.462,0,0,0,6.729,1.376l0,100.769.47.272,113.517,65.54,180.18,0L905.2,537.175l-51.3,0-87.046-50.259H699.8l-.217.127-92.993,53.688a13.267,13.267,0,0,0-10.83.489c-3.276,1.892-3.276,4.959,0,6.851a13.113,13.113,0,0,0,11.865,0c2.954-1.707,3.218-4.362.843-6.254L700.3,488.8h66.045L853.4,539.056l55.054,0,42.46,24.513-91.524,52.84-26.024-15.025V561.944l-66.111-38.169c2.375-1.894,2.111-4.547-.843-6.254a13.113,13.113,0,0,0-11.865,0c-3.276,1.892-3.276,4.959,0,6.851a13.257,13.257,0,0,0,10.83.486l66.111,38.169V600.3l-70.5-40.705H727.6l-.217.127-39.8,22.98a13.273,13.273,0,0,0-10.832.486c-3.276,1.892-3.276,4.959,0,6.851a13.114,13.114,0,0,0,11.865,0c2.954-1.707,3.218-4.359.843-6.254L728.1,561.468h32.378l97.033,56.021-17.63,10.18,56.256,32.478-26.338,15.2H829.963l-28.5-16.454c2.272-1.889,1.966-4.5-.948-6.18a13.13,13.13,0,0,0-11.865,0c-3.276,1.892-3.276,4.959,0,6.851a13.225,13.225,0,0,0,10.959.425l29.855,17.239h37.089l-67.176,38.782L641.318,624.763l-113.728,0-.217.127-64.029,36.967a13.263,13.263,0,0,0-10.832.489c-3.276,1.892-3.276,4.956,0,6.848a13.108,13.108,0,0,0,11.863,0c2.956-1.7,3.221-4.359.845-6.251l62.877-36.3,112.716,0,121.9,70.38h-52.18l-51-29.445c2.375-1.892,2.111-4.547-.843-6.254a13.114,13.114,0,0,0-11.865,0c-3.276,1.892-3.276,4.959,0,6.851a13.268,13.268,0,0,0,10.83.489L710.032,698.9h55.937l31.524,18.2L717.25,763.428H460.8L261.572,648.4c2.375-1.892,2.111-4.547-.843-6.254a13.121,13.121,0,0,0-11.865,0c-3.276,1.892-3.276,4.959,0,6.851a13.262,13.262,0,0,0,10.832.489L460.3,765.307l253.7,0-31.833,18.38H492.333l-.217.127L398.5,837.862a13.272,13.272,0,0,0-10.832.486c-3.276,1.892-3.276,4.959,0,6.851a13.114,13.114,0,0,0,11.865,0c2.954-1.707,3.218-4.359.843-6.254l92.462-53.382,189.834,0,.217-.127,215.128-124.2L921.9,675.022,695.723,805.6H530.314l-.217.127L330.3,921.082l-276.8,0L0,890.195v2.169l53,30.6,277.8,0,.217-.127L456.4,850.446l0,42.845-82.645,47.717a13.263,13.263,0,0,0-10.832.486c-3.276,1.892-3.276,4.959,0,6.851a13.114,13.114,0,0,0,11.865,0c2.954-1.707,3.218-4.359.845-6.254l82.645-47.717,0-44.764h-.431l72.967-42.13H696.227l.219-.127L923.778,676.1l27.128,15.664L509.8,946.44v46.016h1.876l0-44.933L952.785,692.853l33.522,19.353L758.766,843.576v23.488l-40.341,23.292v54.016L640.19,989.537a13.267,13.267,0,0,0-10.83.489,4.842,4.842,0,0,0-2.267,2.431h16.359a4.261,4.261,0,0,0-1.384-1.836L720.3,945.455V891.439l38.462-22.209,0,86.5,22.7,13.107L740.56,992.456h3.754l39.03-22.534,39.028,22.534h3.757l-65.487-37.81,0-109.984,227.54-131.374,30.515,17.62L857.675,823.875a13.274,13.274,0,0,0-10.832.486c-3.276,1.892-3.276,4.959,0,6.851a13.114,13.114,0,0,0,11.865,0c2.954-1.707,3.218-4.359.845-6.254l161.022-92.967L1050.037,749l-192.616,111.2H805.07a4.815,4.815,0,0,0-2.3-2.484,13.113,13.113,0,0,0-11.865,0c-3.276,1.892-3.276,4.959,0,6.848a13.1,13.1,0,0,0,11.865,0,4.81,4.81,0,0,0,2.3-2.486h52.853l.219-.127,193.77-111.873,11.894,6.867,9.152-5.284,46.151,26.645v37.08L1080.98,837.4v-.1h-59.828l-.219.127-65.651,37.9a13.257,13.257,0,0,0-10.83.489c-3.276,1.889-3.276,4.956,0,6.848a13.113,13.113,0,0,0,11.865,0c2.954-1.7,3.218-4.359.843-6.254l64.494-37.236H1077.9L965.813,903.9a13.223,13.223,0,0,0-11.065.378c-3.276,1.892-3.276,4.956,0,6.848a13.113,13.113,0,0,0,11.865,0c2.882-1.665,3.223-4.235,1.033-6.119l139.812-80.719,0,17.841-83.181,48.026v33.908l-67.723,39.1a13.254,13.254,0,0,0-10.832.486c-3.276,1.892-3.276,4.959,0,6.851a13.114,13.114,0,0,0,11.865,0c2.954-1.707,3.218-4.362.845-6.254l67.723-39.1V891.238l83.181-48.024,0-20.01,11.651-6.727v-39.25l-46.151-26.645,30.328-17.511L1200.13,787.9l0,62.33-64.481,37.229a13.223,13.223,0,0,0-11.065.378c-3.276,1.889-3.276,4.956,0,6.848a13.114,13.114,0,0,0,11.865,0c2.882-1.662,3.223-4.235,1.033-6.119l62.647-36.166v50.349l-49.493,28.573,0,61.136h1.879l0-60.053,47.614-27.49,0,87.543H1202l.005-205.641-94.964-54.827,34.056-19.662,124.116,71.659-.005,170.661,59.662,34.447v3.363h1.878V988.01l-59.662-34.447.005-170.661-124.116-71.659,25.239-14.573,167.506,96.708,0,145.614,92.6,53.464h3.754L1337.6,937.909l0-145.614L1170.1,695.587,1211,671.968l278.695,160.9,0,72.454,95.511,55.144V958.3l-93.635-54.061,0-72.454-156.758-90.5h123.974L1585.2,814.269V812.1L1459.29,739.4H1331.562L1212.88,670.884l47.543-27.451,102.018,58.9,163.8,0,58.959,34.042v-2.169l-12.925-7.461,12.925,0v-1.878l-16.177,0-42.28-24.412-163.8.005L1334.4,683.975h69.641l.217-.127,34.932-20.166,145.535,0,.483.277V661.8l-142.764,0,39.324-22.705a13.263,13.263,0,0,0,10.832-.489c3.276-1.889,3.276-4.956,0-6.848a13.114,13.114,0,0,0-11.865,0c-2.956,1.707-3.218,4.359-.843,6.254L1403.533,682.1h-72.388L1262.3,642.351l25.44-14.687-16.37-9.451h47.588l62.2,35.91c-2.375,1.894-2.111,4.549.843,6.254a13.113,13.113,0,0,0,11.865,0c3.276-1.892,3.276-4.959,0-6.851a13.267,13.267,0,0,0-10.83-.486l-63.577-36.705h-51.342l-34.814-20.1,21.408-12.362h37.979l33.385-19.273h24.917l56.267,32.484c-2.526,1.9-2.317,4.621.695,6.362a13.124,13.124,0,0,0,11.863,0c3.279-1.894,3.279-4.959,0-6.851a13.3,13.3,0,0,0-10.647-.576l-57.675-33.3h-25.921L1292.188,582h-34.219l68.444-39.517h36.956l77.033,44.473h144.8v-1.878l-144.3,0L1363.871,540.6h-37.963l-.217.124-94.264,54.425-24.732-14.28,106.515-61.5h75.128l61.979,35.783H1585.2v-1.878H1450.819l-58.727-33.9H1585.2v-1.879h-272.5l-.219.127-107.672,62.167-28.1-16.225,148.534-85.754,259.955,0v-1.878l-189.435,0L1585.2,366.559v-2.166L1392.016,475.93h-65.4l140.83-81.308V376.7l67.384-38.9a13.257,13.257,0,0,0,10.83-.489c3.276-1.892,3.276-4.956,0-6.848a13.107,13.107,0,0,0-11.863,0c-2.956,1.7-3.221,4.359-.845,6.254L1496.259,357.9v-49.11l88.946-51.353v-2.169l-90.824,52.439v51.276l-28.814,16.637v17.921l-141.982,81.974.47.816L1174.84,562.48l-27.131-15.664L1301,458.316,1301,312.7l284.2-164.082v-2.169L1345.752,284.7l0-131.7L1529.02,47.193c.132.087.233.182.375.264a13.113,13.113,0,0,0,11.865,0C1544.536,45.566,1544.536,42.5,1541.26,40.607ZM1283.984,627.664l-220.177,127.12L843.638,627.669l220.177-127.12Z" fill="#2c7df7" opacity="0.326"/>
    <path id="Path_433" data-name="Path 433" d="M1477.656,191.127l-39.141,22.6,0,72.808L1090.834,487.265l-26.417-15.252,179.345-103.548v-18.51l31.8-18.359V289.022l61.662-35.6a10.463,10.463,0,0,0,8.536-.383c2.584-1.493,2.584-3.91,0-5.4a10.321,10.321,0,0,0-9.35,0c-2.33,1.345-2.539,3.437-.666,4.927l-61.662,35.6,0,42.576-30.314,17.5,0-68.177-.373-.214-17.522-10.116L1331,209.038V140.776l74.687-43.12a10.442,10.442,0,0,0,8.536-.386c2.584-1.49,2.584-3.908,0-5.4a10.337,10.337,0,0,0-9.35,0c-2.33,1.345-2.536,3.437-.666,4.927l-74.687,43.123,0,68.259-105.134,60.7L1053.463,170.2l0-76.359a9.143,9.143,0,0,0,3.934-1.075c2.584-1.493,2.584-3.908,0-5.4a10.337,10.337,0,0,0-9.35,0c-2.584,1.493-2.584,3.908,0,5.4a9.142,9.142,0,0,0,3.934,1.075v77.213l.37.214,102.808,59.358H1080.24l-60.584-34.978c1.87-1.493,1.662-3.583-.666-4.927a10.342,10.342,0,0,0-9.353,0c-2.581,1.49-2.581,3.908,0,5.4a10.453,10.453,0,0,0,8.536.383l61.667,35.6h77.852v-.021l84.589,48.837v86.69L1062.935,471.157l-24.048-13.884L1165.8,383.994a10.459,10.459,0,0,0,8.539-.383c2.581-1.49,2.581-3.908,0-5.4a10.343,10.343,0,0,0-9.353,0c-2.328,1.345-2.536,3.437-.666,4.93L1037.4,456.417l-23.218-13.406L1166,355.36l41.263,0a3.793,3.793,0,0,0,1.81,1.96,10.337,10.337,0,0,0,9.35,0c2.584-1.49,2.584-3.91,0-5.4a10.337,10.337,0,0,0-9.35,0,3.793,3.793,0,0,0-1.81,1.96h-41.659l-.172.1L1012.7,442.155l-9.371-5.411-.37.211-6.843,3.952-36.375-21,0-29.223L989.8,373.331v.079l47.155,0,51.918-29.974a10.454,10.454,0,0,0,8.536-.386c2.581-1.49,2.581-3.908,0-5.4a10.335,10.335,0,0,0-9.353,0c-2.328,1.345-2.536,3.435-.666,4.927l-50.832,29.35H992.227l88.343-51.007a10.416,10.416,0,0,0,8.719-.3c2.584-1.49,2.584-3.908,0-5.4a10.321,10.321,0,0,0-9.35,0c-2.272,1.31-2.542,3.337-.816,4.822l-110.2,63.622V369.606l65.561-37.855V305.027l53.379-30.819a10.452,10.452,0,0,0,8.536-.383c2.584-1.49,2.584-3.908,0-5.4a10.337,10.337,0,0,0-9.35,0c-2.33,1.345-2.536,3.437-.666,4.93l-53.379,30.819V330.9L967.444,368.75v15.775l-9.184,5.3v30.938l36.373,21-23.9,13.8-74.848-43.215,0-49.125,50.822-29.342a10.432,10.432,0,0,0,8.721-.3c2.581-1.49,2.581-3.908,0-5.4a10.321,10.321,0,0,0-9.35,0c-2.272,1.31-2.542,3.337-.816,4.822l-49.377,28.507V321.828l39.009-22.52,0-74.653a9.181,9.181,0,0,0,3.934-1.078c2.584-1.493,2.584-3.91,0-5.4a10.337,10.337,0,0,0-9.35,0c-2.584,1.493-2.584,3.908,0,5.4a9.181,9.181,0,0,0,3.934,1.078v73.8l-37.53,21.667,0-131.635h-1.479L894.4,413.2l74.845,43.215-26.84,15.5-97.826-56.481,0-134.513-47.023-27.152v-50.6L756.044,179.2c1.871-1.493,1.662-3.585-.666-4.93a10.343,10.343,0,0,0-9.353,0c-2.581,1.493-2.581,3.91,0,5.4a10.453,10.453,0,0,0,8.536.383l41.522,23.974,0,50.594,47.025,27.152,0,134.515,97.823,56.481-19.892,11.485L789.008,408.028l0-114.766-.37-.214L671.777,225.577c1.871-1.493,1.664-3.585-.666-4.93a10.337,10.337,0,0,0-9.35,0c-2.584,1.493-2.584,3.908,0,5.4a10.452,10.452,0,0,0,8.536.383l117.234,67.686,0,114.769.37.214L919.55,485.112l-32.238,18.613L667.651,376.9V319.8l-.372-.214L483.384,213.408c1.871-1.493,1.662-3.585-.666-4.927a10.326,10.326,0,0,0-9.353,0c-2.581,1.49-2.581,3.908,0,5.4a10.453,10.453,0,0,0,8.536.383L666.171,320.649v57.107l.37.214,123.178,71.12-97.707,0L578.9,383.788c1.873-1.493,1.664-3.585-.666-4.93a10.337,10.337,0,0,0-9.35,0c-2.584,1.49-2.584,3.908,0,5.4a10.453,10.453,0,0,0,8.536.383l114.2,65.931,100.671,0,93.546,54.011-37.472,21.633-80.409-46.423H638.842L492,395.009l-81.464,0L377.32,375.836c1.871-1.493,1.662-3.583-.666-4.927a10.342,10.342,0,0,0-9.353,0c-2.581,1.49-2.581,3.908,0,5.4a10.453,10.453,0,0,0,8.536.386l34.3,19.8,81.464,0,110.962,64.063H506.718l-46.156-26.647c1.871-1.493,1.662-3.585-.666-4.93a10.343,10.343,0,0,0-9.353,0c-2.581,1.49-2.581,3.908,0,5.4a10.452,10.452,0,0,0,8.536.383l47.242,27.273h98.8l33.318,19.239h129.11l22.5,12.991H735.164l-.172.1-27.53,15.894-114.713,0L560.39,491.577H495.5a3.79,3.79,0,0,0-1.81-1.958,10.321,10.321,0,0,0-9.35,0c-2.584,1.49-2.584,3.908,0,5.4a10.337,10.337,0,0,0,9.35,0,3.79,3.79,0,0,0,1.81-1.958h64.491l32.359,18.682,112.544,0-31,17.9a10.459,10.459,0,0,0-8.539.383c-2.581,1.493-2.581,3.908,0,5.4a10.342,10.342,0,0,0,9.353,0c2.328-1.345,2.536-3.435.666-4.927l60.182-34.748h57.054l54.256,31.326-20.048,11.577,1.11.642,11.791,6.806-37.5,0L753.2,517.791c1.871-1.493,1.662-3.585-.666-4.93a10.337,10.337,0,0,0-9.35,0c-2.584,1.493-2.584,3.91,0,5.4a10.457,10.457,0,0,0,8.534.386l50.114,28.93,40.465,0,27.44,15.844-16.874,9.744H822.927l-.172.1-26.143,15.094H776.974l-44.349-25.606c1.989-1.5,1.826-3.641-.55-5.009a10.321,10.321,0,0,0-9.35,0c-2.584,1.49-2.584,3.908,0,5.4a10.484,10.484,0,0,0,8.391.455l45.461,26.246h20.431l.172-.1,26.143-15.091h26.97l-53.945,31.144H767.223L706.5,570.734H523.4L409.833,505.164c1.966-1.5,1.794-3.63-.571-5a10.343,10.343,0,0,0-9.353,0c-2.581,1.493-2.581,3.908,0,5.4a10.48,10.48,0,0,0,8.42.439l114.676,66.209H706.1l60.719,35.052h29.921l.172-.1,74.3-42.9,19.493,11.252L806.752,624H747.54l-48.851-28.206-125.379,0a3.789,3.789,0,0,0-1.81-1.958,10.326,10.326,0,0,0-9.353,0c-2.581,1.49-2.581,3.908,0,5.4a10.342,10.342,0,0,0,9.353,0,3.8,3.8,0,0,0,1.81-1.958l124.98,0L744.575,624H567.9l-.169.1-168.367,97.21a10.452,10.452,0,0,0-8.536.383c-2.584,1.493-2.584,3.908,0,5.4a10.337,10.337,0,0,0,9.35,0c2.328-1.345,2.539-3.435.668-4.927L568.3,625.482H807.151l.172-.1,84.867-49,22.145,12.785-117.07,67.6H591.122l-.169.1L410.44,761.08l-210.328,0L77.455,690.264c1.871-1.493,1.659-3.583-.668-4.927a10.337,10.337,0,0,0-9.35,0c-2.584,1.49-2.584,3.908,0,5.4a10.457,10.457,0,0,0,8.534.383l123.746,71.443,211.12,0,.172-.1L591.521,658.242H741.677L521.193,785.54l0,33.509-87.952,50.779a10.463,10.463,0,0,0-8.536.383c-2.581,1.493-2.581,3.91,0,5.4a10.342,10.342,0,0,0,9.353,0c2.328-1.345,2.536-3.437.666-4.927l87.95-50.777,0-33.511L744.644,658.242h51.538L685.188,722.327v14.124l-53.112,30.666a10.452,10.452,0,0,0-8.536.383c-2.584,1.49-2.584,3.908,0,5.4a10.321,10.321,0,0,0,9.35,0c2.33-1.342,2.539-3.435.668-4.927l28.917-16.695v38.7L495.4,886.438a10.447,10.447,0,0,0-8.534.383c-2.584,1.49-2.584,3.908,0,5.4a10.337,10.337,0,0,0,9.35,0c2.328-1.345,2.536-3.437.666-4.93l167.07-96.454V750.419l22.711-13.112V723.183l111.908-64.61-.37-.642,117.612-67.9L937.2,602.367,816.377,672.124l0,114.769L594.16,915.188h2.964L781.1,808.969l0,103.8-4.19,2.42h2.964l2.708-1.564,0-105.511,35.271-20.362,0-114.771,120.819-69.757L957.5,614.092l-93.165,53.786,0,62.919.37.214,105.929,61.157V813.5l-59.908,34.584a10.468,10.468,0,0,0-8.534.386c-2.584,1.493-2.584,3.908,0,5.4a10.337,10.337,0,0,0,9.35,0c2.33-1.345,2.539-3.437.666-4.93l59.9-34.584,0-23.049-.37-.214L865.817,729.941v-61.2l70.394-40.642v26.211l-32.272,18.631a10.453,10.453,0,0,0-8.536.386c-2.581,1.49-2.581,3.908,0,5.4a10.326,10.326,0,0,0,9.353,0c2.328-1.345,2.536-3.435.666-4.927l32.27-18.631,0-27.921,21.292-12.293,25.176,14.534,0,45.649L936.67,702.546v31.559l.37.214,99.968,57.715c-1.871,1.493-1.662,3.583.666,4.927a10.321,10.321,0,0,0,9.35,0c2.584-1.49,2.584-3.908,0-5.4a10.453,10.453,0,0,0-8.536-.386L938.153,733.249V703.4l46.005-26.56V708.3l61.53,35.527c-1.868,1.493-1.659,3.583.668,4.927a10.343,10.343,0,0,0,9.353,0c2.581-1.49,2.581-3.908,0-5.4a10.459,10.459,0,0,0-8.539-.383l-61.532-35.527,0-77.11,17.683,10.209.37-.211,28.769-16.61,26.388,15.236,0,37.025,70.137,40.491,0,34.9a9.18,9.18,0,0,0-3.934,1.075c-2.581,1.493-2.581,3.91,0,5.4a10.337,10.337,0,0,0,9.35,0c2.584-1.49,2.584-3.908,0-5.4a9.2,9.2,0,0,0-3.937-1.075V715.622L1060.33,675.13V639.817l113.543,65.554,0,69.487-61.58,35.554h-56.51l-.172.1L958.641,866.5a10.453,10.453,0,0,0-8.536.383c-2.581,1.493-2.581,3.908,0,5.4a10.337,10.337,0,0,0,9.35,0c2.33-1.345,2.539-3.437.668-4.927l96.055-55.461h53.546L931.587,914.739a10.453,10.453,0,0,0-8.536.386c-.034.018-.055.042-.09.063h10.816l241.575-139.474,0-71.2-.373-.214-141.038-81.432,28.383-16.386,240.806,139.028,0,82.959,82.262,47.5c-1.871,1.49-1.662,3.583.666,4.925a10.326,10.326,0,0,0,9.353,0c2.581-1.49,2.581-3.908,0-5.4a10.463,10.463,0,0,0-8.536-.386l-82.261-47.5V744.655l-.37-.214L1063.809,605.627l27.025-15.6,238.14,137.49H1470.99l6.666,3.847v-1.709l-6.269-3.62H1329.371L1128.345,609.97h40.431l68.613,39.612,52.848,0,.172-.1,73.3-42.317a10.463,10.463,0,0,0,8.536-.386c2.581-1.49,2.581-3.908,0-5.4a10.343,10.343,0,0,0-9.353,0c-2.328,1.345-2.536,3.437-.666,4.93L1289.841,648.1l-52.055,0-68.61-39.612h-43.4l-33.464-19.321,72.135-41.646,20.513,11.841v31.086l52.106,30.084c-1.868,1.493-1.659,3.583.668,4.927a10.337,10.337,0,0,0,9.35,0c2.584-1.493,2.584-3.908,0-5.4a10.452,10.452,0,0,0-8.536-.383l-52.108-30.085,0-29.374,55.569,32.082h26.314l.172-.1,31.374-18.114a10.446,10.446,0,0,0,8.534-.386c2.584-1.49,2.584-3.907,0-5.4a10.337,10.337,0,0,0-9.35,0c-2.33,1.345-2.539,3.437-.666,4.927l-30.46,17.585h-25.522l-76.476-44.156,13.892-8.021-1.112-.642-43.229-24.956,20.763-11.987h31.4l22.465,12.972c-1.789,1.487-1.548,3.543.75,4.869a10.321,10.321,0,0,0,9.35,0c2.584-1.49,2.584-3.908,0-5.4a10.434,10.434,0,0,0-8.637-.338l-23.532-13.588h-29.226l52.943-30.565,124.573,71.923h89.638l.172-.1,50.47-29.139a9.735,9.735,0,0,0,1.044.291v-6.814a7.9,7.9,0,0,0-1.86.737c-2.328,1.345-2.536,3.435-.668,4.927l-49.554,28.613h-88.843l-96.077-55.469,41.12,0,40.2,23.21c-1.87,1.493-1.662,3.583.666,4.927a10.326,10.326,0,0,0,9.353,0c2.581-1.49,2.581-3.908,0-5.4a10.453,10.453,0,0,0-8.536-.386L1282.174,482.5l-44.082,0-24.851-14.346,63.242-36.515h201.173v-1.482l-198.608,0,25.088-14.484,149.625,0,.172-.1,23.723-13.7v-1.709l-24.291,14.024-149.625,0-.172.1L1134,512.187,1115.18,501.32,1293.45,398.4l130.375,0,.172-.1,53.659-30.98v-1.709l-54.227,31.308-130.375,0-.172.1L1113.7,500.464l-21.379-12.343,347.675-200.732,0-72.808,37.659-21.744Zm-300.79,347.514-173.543,100.2L829.788,538.647l173.54-100.193Z" transform="translate(107.549 77.268)" fill="#2c7df7" opacity="0.169"/>
  </g>
</svg>
