<?xml version="1.0" encoding="utf-8"?>
<!-- Generator: Adobe Illustrator 21.1.0, SVG Export Plug-In . SVG Version: 6.00 Build 0)  -->
<svg version="1.1" id="Layer_1" xmlns="http://www.w3.org/2000/svg" xmlns:xlink="http://www.w3.org/1999/xlink" x="0px" y="0px"
	 viewBox="0 0 1585.2 953.3" style="enable-background:new 0 0 1585.2 953.3;" xml:space="preserve">
<style type="text/css">
	.st0{opacity:0.3;}
	.st1{opacity:0.326;fill:#2C7DF7;enable-background:new    ;}
	.st2{opacity:0.169;fill:#2C7DF7;enable-background:new    ;}
</style>
<g id="Group_219" transform="translate(0 -39.188)" class="st0">
	<path id="Path_432" class="st1" d="M1541.3,40.6c-3.7-1.9-8.1-1.9-11.9,0c-2.5,1.4-3.1,3.5-1.8,5.3l-183.7,106.1v133.9l-44.7,25.8
		l0,145.6l-153.3,88.5l-23.9-13.8l118.2-68.2v-79.8l-0.5-0.3L1105.3,306v-27.1l76-43.9c3.5,1.4,7.5,1.2,10.8-0.5
		c3.3-1.9,3.3-5,0-6.8c-3.7-1.9-8.1-1.9-11.9,0c-3,1.7-3.2,4.4-0.8,6.3l-76,43.9v29.2l0.5,0.3l134.4,77.6v77.7l-89.3,51.6v-33.3
		l40.9-23.6c3.5,1.4,7.5,1.2,10.8-0.5c3.3-1.9,3.3-5,0-6.9c-3.7-1.9-8.1-1.9-11.9,0c-3,1.7-3.2,4.4-0.8,6.3l-40.9,23.6v35.4
		l-27,15.6l-31.9-18.4v-57.9l60.3-34.8v-40l-0.5-0.3l-126.8-73.2c2.4-1.9,2.1-4.5-0.8-6.3c-3.7-1.9-8.1-1.9-11.9,0
		c-3.3,1.9-3.3,5,0,6.9c3.4,1.7,7.3,1.9,10.8,0.5l127.3,73.5v37.9l-58.4,33.7v-39.9l-0.5-0.3l-77.6-44.8c2.4-1.9,2.1-4.5-0.8-6.3
		c-3.7-1.9-8.1-1.9-11.9,0c-3.3,1.9-3.3,5,0,6.9c3.4,1.7,7.3,1.9,10.8,0.5l78.1,45.1v97.8l-22.4-13l-37,21.3l-33.5-19.3v-47
		l-0.5-0.3L904.4,402v-44.3c1.7-0.1,3.5-0.5,5-1.4c3.3-1.9,3.3-5,0-6.9c-3.7-1.9-8.1-1.9-11.9,0c-3.3,1.9-3.3,5,0,6.9
		c1.5,0.8,3.2,1.3,5,1.4v45.4l0.5,0.3l88.5,51.1v44.8l-144.1-83.2V328l78.1-45.1h71.7l0.2-0.1l123-71c3.5,1.4,7.5,1.2,10.8-0.5
		c3.3-1.9,3.3-5,0-6.9c-3.7-1.9-8.1-1.9-11.9,0c-3,1.7-3.2,4.4-0.8,6.3L996.8,281h-67.9l226-130.5c3.5,1.4,7.5,1.2,10.8-0.5
		c3.3-1.9,3.3-5,0-6.9c-3.7-1.9-8.1-1.9-11.9,0c-3,1.7-3.2,4.4-0.8,6.3L845.6,326.9v90.3l0.5,0.3L1025,520.8l-36,20.8L683.4,365.2
		V260l-0.5-0.3l-103.9-60c2.4-1.9,2.1-4.5-0.8-6.3c-3.7-1.9-8.1-1.9-11.9,0c-3.3,1.9-3.3,5,0,6.9c3.4,1.7,7.3,1.9,10.8,0.5
		L681.6,261v105.3l0.5,0.3l305,176.1l-34.3,19.8L650.7,388H470.5l-112.6-65v-99.9c1.1-0.2,2.2-0.6,3.3-1.1c3.3-1.9,3.3-5,0-6.8
		c-3.7-1.9-8.1-1.9-11.9,0c-3.3,1.9-3.3,5,0,6.8c2.1,1.1,4.4,1.6,6.7,1.4v100.8l0.5,0.3L470,389.9h180.2l255.1,147.3h-51.3l-87-50.3
		h-67.1l-0.2,0.1l-93,53.7c-3.5-1.4-7.5-1.2-10.8,0.5c-3.3,1.9-3.3,5,0,6.9c3.7,1.9,8.1,1.9,11.9,0c3-1.7,3.2-4.4,0.8-6.3l91.8-53
		h66l87.1,50.3h55.1l42.5,24.5l-91.5,52.8l-26-15v-39.4l-66.1-38.2c2.4-1.9,2.1-4.5-0.8-6.3c-3.7-1.9-8.1-1.9-11.9,0
		c-3.3,1.9-3.3,5,0,6.9c3.4,1.7,7.3,1.9,10.8,0.5l66.1,38.2v37.3L761,559.6h-33.4l-0.2,0.1l-39.8,23c-3.5-1.4-7.5-1.2-10.8,0.5
		c-3.3,1.9-3.3,5,0,6.9c3.7,1.9,8.1,1.9,11.9,0c3-1.7,3.2-4.4,0.8-6.3l38.6-22.3h32.4l97,56l-17.6,10.2l56.3,32.5l-26.3,15.2H830
		l-28.5-16.5c2.3-1.9,2-4.5-0.9-6.2c-3.7-1.9-8.1-1.9-11.9,0c-3.3,1.9-3.3,5,0,6.9c3.4,1.7,7.4,1.9,11,0.4l29.9,17.2h37.1L799.4,716
		l-158.1-91.2H527.6l-0.2,0.1l-64,37c-3.5-1.4-7.5-1.2-10.8,0.5c-3.3,1.9-3.3,5,0,6.8c3.7,1.9,8.1,1.9,11.9,0c3-1.7,3.2-4.4,0.8-6.3
		l62.9-36.3h112.7L762.7,697h-52.2l-51-29.4c2.4-1.9,2.1-4.5-0.8-6.3c-3.7-1.9-8.1-1.9-11.9,0c-3.3,1.9-3.3,5,0,6.9
		c3.4,1.7,7.3,1.9,10.8,0.5l52.4,30.2H766l31.5,18.2l-80.2,46.3H460.8l-199.2-115c2.4-1.9,2.1-4.5-0.8-6.3c-3.7-1.9-8.1-1.9-11.9,0
		c-3.3,1.9-3.3,5,0,6.9c3.4,1.7,7.3,1.9,10.8,0.5l200.6,115.8H714l-31.8,18.4H492.3l-0.2,0.1l-93.6,54c-3.5-1.4-7.5-1.2-10.8,0.5
		c-3.3,1.9-3.3,5,0,6.9c3.7,1.9,8.1,1.9,11.9,0c3-1.7,3.2-4.4,0.8-6.3l92.5-53.4h189.8l0.2-0.1L898,661.2l23.9,13.8L695.7,805.6
		H530.3l-0.2,0.1L330.3,921.1H53.5L0,890.2v2.2L53,923h277.8l0.2-0.1l125.4-72.4v42.8L373.8,941c-3.5-1.4-7.5-1.2-10.8,0.5
		c-3.3,1.9-3.3,5,0,6.9c3.7,1.9,8.1,1.9,11.9,0c3-1.7,3.2-4.4,0.8-6.3l82.6-47.7v-44.8h-0.4l73-42.1h165.4l0.2-0.1l227.3-131.3
		l27.1,15.7L509.8,946.4v46h1.9v-44.9l441.1-254.7l33.5,19.4L758.8,843.6v23.5l-40.3,23.3v54l-78.2,45.2c-3.5-1.4-7.5-1.2-10.8,0.5
		c-1,0.5-1.8,1.4-2.3,2.4h16.4c-0.3-0.7-0.8-1.4-1.4-1.8l78.2-45.2v-54l38.5-22.2v86.5l22.7,13.1l-40.9,23.6h3.8l39-22.5l39,22.5
		h3.8l-65.5-37.8v-110l227.5-131.4l30.5,17.6l-161,93c-3.5-1.4-7.5-1.2-10.8,0.5c-3.3,1.9-3.3,5,0,6.9c3.7,1.9,8.1,1.9,11.9,0
		c3-1.7,3.2-4.4,0.8-6.3l161-93l29.5,17L857.4,860.2h-52.4c-0.4-1.1-1.3-2-2.3-2.5c-3.7-1.9-8.1-1.9-11.9,0c-3.3,1.9-3.3,5,0,6.8
		c3.7,1.9,8.1,1.9,11.9,0c1-0.5,1.9-1.4,2.3-2.5h52.9l0.2-0.1l193.8-111.9l11.9,6.9l9.2-5.3l46.2,26.6v37.1l-38.1,22v-0.1h-59.8
		l-0.2,0.1l-65.7,37.9c-3.5-1.4-7.5-1.2-10.8,0.5c-3.3,1.9-3.3,5,0,6.8c3.7,1.9,8.1,1.9,11.9,0c3-1.7,3.2-4.4,0.8-6.3l64.5-37.2
		h56.2l-112.1,64.7c-3.6-1.5-7.6-1.4-11.1,0.4c-3.3,1.9-3.3,5,0,6.8c3.7,1.9,8.1,1.9,11.9,0c2.9-1.7,3.2-4.2,1-6.1l139.8-80.7v17.8
		l-83.2,48v33.9l-67.7,39.1c-3.5-1.4-7.5-1.2-10.8,0.5c-3.3,1.9-3.3,5,0,6.9c3.7,1.9,8.1,1.9,11.9,0c3-1.7,3.2-4.4,0.8-6.3
		l67.7-39.1v-33.9l83.2-48v-20l11.7-6.7v-39.2l-46.2-26.6l30.3-17.5l95,54.8v62.3l-64.5,37.2c-3.6-1.5-7.6-1.4-11.1,0.4
		c-3.3,1.9-3.3,5,0,6.8c3.7,1.9,8.1,1.9,11.9,0c2.9-1.7,3.2-4.2,1-6.1l62.6-36.2v50.3l-49.5,28.6v61.1h1.9v-60.1l47.6-27.5v87.5h1.9
		l0-205.6l-95-54.8l34.1-19.7l124.1,71.7l0,170.7l59.7,34.4v3.4h1.9V988l-59.7-34.4l0-170.7L1143,711.2l25.2-14.6l167.5,96.7V939
		l92.6,53.5h3.8l-94.5-54.5V792.3l-167.5-96.7L1211,672l278.7,160.9v72.5l95.5,55.1v-2.2l-93.6-54.1v-72.5l-156.8-90.5h124l126.4,73
		v-2.2l-125.9-72.7h-127.7l-118.7-68.5l47.5-27.5l102,58.9h163.8l59,34v-2.2l-12.9-7.5h12.9v-1.9H1569l-42.3-24.4l-163.8,0
		l-28.5-16.5h69.6l0.2-0.1l34.9-20.2h145.5l0.5,0.3v-2.2h-142.8l39.3-22.7c3.5,1.4,7.5,1.2,10.8-0.5c3.3-1.9,3.3-5,0-6.8
		c-3.7-1.9-8.1-1.9-11.9,0c-3,1.7-3.2,4.4-0.8,6.3l-76.4,44.1h-72.4l-68.8-39.7l25.4-14.7l-16.4-9.5h47.6l62.2,35.9
		c-2.4,1.9-2.1,4.5,0.8,6.3c3.7,1.9,8.1,1.9,11.9,0c3.3-1.9,3.3-5,0-6.9c-3.4-1.7-7.3-1.9-10.8-0.5l-63.6-36.7h-51.3l-34.8-20.1
		l21.4-12.4h38l33.4-19.3h24.9l56.3,32.5c-2.5,1.9-2.3,4.6,0.7,6.4c3.7,1.9,8.1,1.9,11.9,0c3.3-1.9,3.3-5,0-6.9
		c-3.3-1.7-7.2-1.9-10.6-0.6l-57.7-33.3h-25.9l-33.4,19.3H1258l68.4-39.5h37l77,44.5h144.8v-1.9h-144.3l-77-44.5h-38l-0.2,0.1
		l-94.3,54.4l-24.7-14.3l106.5-61.5h75.1l62,35.8h134.9v-1.9h-134.4l-58.7-33.9h193.1v-1.9h-272.5l-0.2,0.1l-107.7,62.2l-28.1-16.2
		l148.5-85.8h260v-1.9h-189.4l189.4-109.4v-2.2L1392,475.9h-65.4l140.8-81.3v-17.9l67.4-38.9c3.5,1.4,7.5,1.2,10.8-0.5
		c3.3-1.9,3.3-5,0-6.8c-3.7-1.9-8.1-1.9-11.9,0c-3,1.7-3.2,4.4-0.8,6.3l-36.7,21.2v-49.1l88.9-51.4v-2.2l-90.8,52.4V359l-28.8,16.6
		v17.9l-142,82l0.5,0.8l-149.2,86.1l-27.1-15.7l153.3-88.5V312.7l284.2-164.1v-2.2l-239.4,138.3V153L1529,47.2
		c0.1,0.1,0.2,0.2,0.4,0.3c3.7,1.9,8.1,1.9,11.9,0C1544.5,45.6,1544.5,42.5,1541.3,40.6z M1284,627.7l-220.2,127.1L843.6,627.7
		l220.2-127.1L1284,627.7z"/>
	<path id="Path_433" class="st2" d="M1585.2,268.4l-39.1,22.6v72.8l-347.7,200.7l-26.4-15.3l179.3-103.5v-18.5l31.8-18.4v-42.6
		l61.7-35.6c2.8,1.1,5.9,1,8.5-0.4c2.6-1.5,2.6-3.9,0-5.4c-2.9-1.5-6.4-1.5-9.3,0c-2.3,1.3-2.5,3.4-0.7,4.9l-61.7,35.6V408
		l-30.3,17.5v-68.2l-0.4-0.2l-17.5-10.1l105.1-60.7V218l74.7-43.1c2.8,1.1,5.9,1,8.5-0.4c2.6-1.5,2.6-3.9,0-5.4
		c-2.9-1.5-6.4-1.5-9.3,0c-2.3,1.3-2.5,3.4-0.7,4.9l-74.7,43.1v68.3l-105.1,60.7L1161,247.5v-76.4c1.4-0.1,2.7-0.4,3.9-1.1
		c2.6-1.5,2.6-3.9,0-5.4c-2.9-1.5-6.4-1.5-9.3,0c-2.6,1.5-2.6,3.9,0,5.4c1.2,0.6,2.6,1,3.9,1.1v77.2l0.4,0.2l102.8,59.4h-74.9
		l-60.6-35c1.9-1.5,1.7-3.6-0.7-4.9c-2.9-1.5-6.4-1.5-9.4,0c-2.6,1.5-2.6,3.9,0,5.4c2.7,1.3,5.8,1.5,8.5,0.4l61.7,35.6h77.9v0
		l84.6,48.8v86.7l-179.3,103.5l-24-13.9l126.9-73.3c2.8,1.1,5.9,1,8.5-0.4c2.6-1.5,2.6-3.9,0-5.4c-2.9-1.5-6.4-1.5-9.4,0
		c-2.3,1.3-2.5,3.4-0.7,4.9l-126.9,73.3l-23.2-13.4l151.8-87.7h41.3c0.3,0.9,1,1.5,1.8,2c2.9,1.5,6.4,1.5,9.3,0
		c2.6-1.5,2.6-3.9,0-5.4c-2.9-1.5-6.4-1.5-9.3,0c-0.8,0.4-1.5,1.1-1.8,2h-41.7l-0.2,0.1l-152.7,88.2l-9.4-5.4l-0.4,0.2l-6.8,4
		l-36.4-21V468l30.1-17.4v0.1h47.2l51.9-30c2.8,1.1,5.9,1,8.5-0.4c2.6-1.5,2.6-3.9,0-5.4c-2.9-1.5-6.4-1.5-9.4,0
		c-2.3,1.3-2.5,3.4-0.7,4.9l-50.8,29.4h-44.3l88.3-51c2.8,1.2,6,1.1,8.7-0.3c2.6-1.5,2.6-3.9,0-5.4c-2.9-1.5-6.4-1.5-9.3,0
		c-2.3,1.3-2.5,3.3-0.8,4.8l-110.2,63.6v-14.1L1142,409v-26.7l53.4-30.8c2.8,1.1,5.9,1,8.5-0.4c2.6-1.5,2.6-3.9,0-5.4
		c-2.9-1.5-6.4-1.5-9.3,0c-2.3,1.3-2.5,3.4-0.7,4.9l-53.4,30.8v26.7L1075,446v15.8l-9.2,5.3V498l36.4,21l-23.9,13.8l-74.8-43.2
		v-49.1l50.8-29.3c2.8,1.2,6,1.1,8.7-0.3c2.6-1.5,2.6-3.9,0-5.4c-2.9-1.5-6.4-1.5-9.3,0c-2.3,1.3-2.5,3.3-0.8,4.8l-49.4,28.5v-39.7
		l39-22.5v-74.7c1.4-0.1,2.7-0.4,3.9-1.1c2.6-1.5,2.6-3.9,0-5.4c-2.9-1.5-6.4-1.5-9.3,0c-2.6,1.5-2.6,3.9,0,5.4
		c1.2,0.6,2.6,1,3.9,1.1v73.8l-37.5,21.7V265.8h-1.5l0,224.7l74.8,43.2l-26.8,15.5l-97.8-56.5V358.2l-47-27.2v-50.6l-41.5-24
		c1.9-1.5,1.7-3.6-0.7-4.9c-2.9-1.5-6.4-1.5-9.4,0c-2.6,1.5-2.6,3.9,0,5.4c2.7,1.3,5.8,1.5,8.5,0.4l41.5,24v50.6l47,27.2v134.5
		l97.8,56.5l-19.9,11.5l-132-76.2V370.5l-0.4-0.2l-116.9-67.5c1.9-1.5,1.7-3.6-0.7-4.9c-2.9-1.5-6.4-1.5-9.3,0
		c-2.6,1.5-2.6,3.9,0,5.4c2.7,1.3,5.8,1.5,8.5,0.4l117.2,67.7v114.8l0.4,0.2l131.6,76L994.9,581L775.2,454.2v-57.1l-0.4-0.2
		L590.9,290.7c1.9-1.5,1.7-3.6-0.7-4.9c-2.9-1.5-6.4-1.5-9.4,0c-2.6,1.5-2.6,3.9,0,5.4c2.7,1.3,5.8,1.5,8.5,0.4l184.3,106.4V455
		l0.4,0.2l123.2,71.1h-97.7l-113.1-65.3c1.9-1.5,1.7-3.6-0.7-4.9c-2.9-1.5-6.4-1.5-9.3,0c-2.6,1.5-2.6,3.9,0,5.4
		c2.7,1.3,5.8,1.5,8.5,0.4l114.2,65.9h100.7l93.5,54l-37.5,21.6l-80.4-46.4H746.4l-146.8-84.8h-81.5l-33.2-19.2
		c1.9-1.5,1.7-3.6-0.7-4.9c-2.9-1.5-6.4-1.5-9.4,0c-2.6,1.5-2.6,3.9,0,5.4c2.7,1.3,5.8,1.5,8.5,0.4l34.3,19.8h81.5l111,64.1h-95.8
		l-46.2-26.6c1.9-1.5,1.7-3.6-0.7-4.9c-2.9-1.5-6.4-1.5-9.4,0c-2.6,1.5-2.6,3.9,0,5.4c2.7,1.3,5.8,1.5,8.5,0.4l47.2,27.3h98.8
		l33.3,19.2h129.1l22.5,13h-54.9l-0.2,0.1L815,587.5H700.3l-32.4-18.7H603c-0.3-0.9-1-1.5-1.8-2c-2.9-1.5-6.4-1.5-9.4,0
		c-2.6,1.5-2.6,3.9,0,5.4c2.9,1.5,6.4,1.5,9.4,0c0.8-0.4,1.5-1.1,1.8-2h64.5l32.4,18.7h112.5l-31,17.9c-2.8-1.1-5.9-1-8.5,0.4
		c-2.6,1.5-2.6,3.9,0,5.4c2.9,1.5,6.4,1.5,9.4,0c2.3-1.3,2.5-3.4,0.7-4.9l60.2-34.7h57.1l54.3,31.3l-20,11.6l1.1,0.6l11.8,6.8h-37.5
		l-49-28.3c1.9-1.5,1.7-3.6-0.7-4.9c-2.9-1.5-6.4-1.5-9.3,0c-2.6,1.5-2.6,3.9,0,5.4c2.7,1.3,5.8,1.5,8.5,0.4l50.1,28.9h40.5
		l27.4,15.8l-16.9,9.7h-29.9l-0.2,0.1l-26.1,15.1h-19.6L840.2,640c2-1.5,1.8-3.6-0.5-5c-2.9-1.5-6.4-1.5-9.3,0
		c-2.6,1.5-2.6,3.9,0,5.4c2.6,1.3,5.7,1.5,8.4,0.5l45.5,26.2h20.4l0.2-0.1l26.1-15.1h27l-53.9,31.1h-29.1L814,648H630.9l-113.6-65.6
		c2-1.5,1.8-3.6-0.6-5c-2.9-1.5-6.4-1.5-9.4,0c-2.6,1.5-2.6,3.9,0,5.4c2.6,1.3,5.7,1.5,8.4,0.4l114.7,66.2h183.1l60.7,35.1h29.9
		l0.2-0.1l74.3-42.9l19.5,11.3l-84,48.5h-59.2l-48.9-28.2H680.9c-0.3-0.9-1-1.5-1.8-2c-2.9-1.5-6.4-1.5-9.4,0
		c-2.6,1.5-2.6,3.9,0,5.4c2.9,1.5,6.4,1.5,9.4,0c0.8-0.4,1.5-1.1,1.8-2h125l46.3,26.7H675.4l-0.2,0.1l-168.4,97.2
		c-2.8-1.1-5.9-1-8.5,0.4c-2.6,1.5-2.6,3.9,0,5.4c2.9,1.5,6.4,1.5,9.4,0c2.3-1.3,2.5-3.4,0.7-4.9l167.5-96.7h238.9l0.2-0.1l84.9-49
		l22.1,12.8L904.8,734H698.7l-0.2,0.1L518,838.3H307.7L185,767.5c1.9-1.5,1.7-3.6-0.7-4.9c-2.9-1.5-6.4-1.5-9.3,0
		c-2.6,1.5-2.6,3.9,0,5.4c2.7,1.3,5.8,1.5,8.5,0.4l123.7,71.4h211.1l0.2-0.1l180.5-104.2h150.2L628.7,862.8v33.5l-88,50.8
		c-2.8-1.1-5.9-1-8.5,0.4c-2.6,1.5-2.6,3.9,0,5.4c2.9,1.5,6.4,1.5,9.4,0c2.3-1.3,2.5-3.4,0.7-4.9l88-50.8v-33.5l222-128.2h51.5
		l-111,64.1v14.1l-53.1,30.7c-2.8-1.1-5.9-1-8.5,0.4c-2.6,1.5-2.6,3.9,0,5.4c2.9,1.5,6.4,1.5,9.3,0c2.3-1.3,2.5-3.4,0.7-4.9
		l28.9-16.7v38.7l-167.1,96.5c-2.8-1.1-5.9-1-8.5,0.4c-2.6,1.5-2.6,3.9,0,5.4c2.9,1.5,6.4,1.5,9.4,0c2.3-1.3,2.5-3.4,0.7-4.9
		l167.1-96.5v-40.4l22.7-13.1v-14.1l111.9-64.6l-0.4-0.6l117.6-67.9l21.4,12.3l-120.8,69.8v114.8L701.7,992.5h3l184-106.2V990
		l-4.2,2.4h3l2.7-1.6V885.4l35.3-20.4V750.2l120.8-69.8l18.8,10.9l-93.2,53.8v62.9l0.4,0.2l105.9,61.2v21.3l-59.9,34.6
		c-2.8-1.1-5.9-1-8.5,0.4c-2.6,1.5-2.6,3.9,0,5.4c2.9,1.5,6.4,1.5,9.3,0c2.3-1.3,2.5-3.4,0.7-4.9l59.9-34.6v-23l-0.4-0.2
		l-105.9-61.2V746l70.4-40.6v26.2l-32.3,18.6c-2.8-1.1-5.9-1-8.5,0.4c-2.6,1.5-2.6,3.9,0,5.4c2.9,1.5,6.4,1.5,9.4,0
		c2.3-1.3,2.5-3.4,0.7-4.9l32.3-18.6v-27.9l21.3-12.3l25.2,14.5v45.6l-47.5,27.4v31.6l0.4,0.2l100,57.7c-1.9,1.5-1.7,3.6,0.7,4.9
		c2.9,1.5,6.4,1.5,9.3,0c2.6-1.5,2.6-3.9,0-5.4c-2.7-1.3-5.8-1.5-8.5-0.4l-100.3-57.9v-29.8l46-26.6v31.5l61.5,35.5
		c-1.9,1.5-1.7,3.6,0.7,4.9c2.9,1.5,6.4,1.5,9.4,0c2.6-1.5,2.6-3.9,0-5.4c-2.7-1.3-5.8-1.5-8.5-0.4l-61.5-35.5v-77.1l17.7,10.2
		l0.4-0.2L1140,701l26.4,15.2v37l70.1,40.5v34.9c-1.4,0.1-2.7,0.4-3.9,1.1c-2.6,1.5-2.6,3.9,0,5.4c2.9,1.5,6.4,1.5,9.3,0
		c2.6-1.5,2.6-3.9,0-5.4c-1.2-0.6-2.6-1-3.9-1.1v-35.8l-70.1-40.5v-35.3l113.5,65.6v69.5l-61.6,35.6h-56.5l-0.2,0.1l-97,56
		c-2.8-1.1-5.9-1-8.5,0.4c-2.6,1.5-2.6,3.9,0,5.4c2.9,1.5,6.4,1.5,9.3,0c2.3-1.3,2.5-3.4,0.7-4.9l96.1-55.5h53.5L1039.1,992
		c-2.8-1.1-5.9-1-8.5,0.4c0,0-0.1,0-0.1,0.1h10.8L1282.9,853v-71.2l-0.4-0.2l-141-81.4l28.4-16.4l240.8,139v83l82.3,47.5
		c-1.9,1.5-1.7,3.6,0.7,4.9c2.9,1.5,6.4,1.5,9.4,0c2.6-1.5,2.6-3.9,0-5.4c-2.7-1.3-5.8-1.5-8.5-0.4l-82.3-47.5v-83l-0.4-0.2
		l-240.4-138.8l27-15.6l238.1,137.5h142l6.7,3.8v-1.7l-6.3-3.6h-142l-201-116.1h40.4l68.6,39.6h52.8l0.2-0.1l73.3-42.3
		c2.8,1.1,5.9,1,8.5-0.4c2.6-1.5,2.6-3.9,0-5.4c-2.9-1.5-6.4-1.5-9.4,0c-2.3,1.3-2.5,3.4-0.7,4.9l-72.4,41.8h-52.1l-68.6-39.6h-43.4
		l-33.5-19.3l72.1-41.6l20.5,11.8v31.1l52.1,30.1c-1.9,1.5-1.7,3.6,0.7,4.9c2.9,1.5,6.4,1.5,9.3,0c2.6-1.5,2.6-3.9,0-5.4
		c-2.7-1.3-5.8-1.5-8.5-0.4l-52.1-30.1v-29.4l55.6,32.1h26.3l0.2-0.1l31.4-18.1c2.8,1.1,5.9,1,8.5-0.4c2.6-1.5,2.6-3.9,0-5.4
		c-2.9-1.5-6.4-1.5-9.3,0c-2.3,1.3-2.5,3.4-0.7,4.9l-30.5,17.6H1350l-76.5-44.2l13.9-8l-1.1-0.6l-43.2-25l20.8-12h31.4l22.5,13
		c-1.8,1.5-1.5,3.5,0.8,4.9c2.9,1.5,6.4,1.5,9.3,0c2.6-1.5,2.6-3.9,0-5.4c-2.7-1.4-5.8-1.5-8.6-0.3l-23.5-13.6h-29.2l52.9-30.6
		l124.6,71.9h89.6l0.2-0.1l50.5-29.1c0.3,0.1,0.7,0.2,1,0.3v-6.8c-0.6,0.2-1.3,0.4-1.9,0.7c-2.3,1.3-2.5,3.4-0.7,4.9l-49.6,28.6
		h-88.8l-96.1-55.5h41.1l40.2,23.2c-1.9,1.5-1.7,3.6,0.7,4.9c2.9,1.5,6.4,1.5,9.4,0c2.6-1.5,2.6-3.9,0-5.4c-2.7-1.3-5.8-1.5-8.5-0.4
		l-41.3-23.8h-44.1l-24.9-14.3l63.2-36.5h201.2v-1.5h-198.6l25.1-14.5h149.6l0.2-0.1l23.7-13.7v-1.7l-24.3,14h-149.6l-0.2,0.1
		l-169.6,97.9l-18.8-10.9L1401,475.7h130.4l0.2-0.1l53.7-31v-1.7l-54.2,31.3h-130.4l-0.2,0.1l-179.2,103.4l-21.4-12.3l347.7-200.7
		v-72.8l37.7-21.7L1585.2,268.4z M1284.4,615.9l-173.5,100.2L937.3,615.9l173.5-100.2L1284.4,615.9z"/>
</g>
</svg>
